<?xml version="1.0" encoding="UTF-8"?>
<svg id="Livello_1" xmlns="http://www.w3.org/2000/svg" version="1.1" viewBox="0 0 224.4 225.36">
  <!-- Generator: Adobe Illustrator 30.0.0, SVG Export Plug-In . SVG Version: 2.1.1 Build 123)  -->
  <defs>
    <style>
      .st0 {
        fill: #d2bef8;
      }

      .st1 {
        fill: #ff86b3;
      }

      .st2 {
        fill: #00c6d8;
      }

      .st3 {
        fill: #fcfcfc;
      }

      .st4 {
        fill: #ffd888;
      }

      .st5 {
        fill: #fdfdfd;
      }
    </style>
  </defs>
  <path d="M60.728323,170.712129c.378389-.42141,3.71343-2.188104,4.393307-2.44085,1.724394-.641048,4.928151-.920268,6.497529.152947,1.866157,1.276167.954695,3.921304-1.253206,3.916687-1.995486-.004173-2.683265-.748583-4.845471.409643-2.684971,1.438254-4.321448,6.605796-2.998298,9.34039.992233,2.050679,4.22518,1.724078,5.88825.752656,1.456411-.850709,2.037088-4.082188,4.604711-2.61625,3.354061,1.91494-1.748193,6.2007-3.844516,6.977257-8.439341,3.126248-13.177227-3.719596-10.781907-11.513438.241784-.78671,1.901577-4.491218,2.3396-4.979042Z"/>
  <path d="M116.515041,173.278885c1.558373.11518,3.933993-.634173,4.089356,1.565277.20194,2.858837-2.397912,2.129966-4.315867,2.52781l-.023868,6.070041c.100308.419102,2.854544.449147,2.853164,2.438114-.002133,3.07408-4.759192,2.088138-6.064624.345758-1.584439-2.114774-1.10213-5.904087-.854157-8.385027-5.623947,1.046582-5.01816-4.53773.228988-4.331815-.284436-1.987715.701747-7.990784,3.829212-6.088854,1.908213,1.160457.116385,4.056555.257795,5.858696Z"/>
  <path d="M162.54581,173.278885c1.558373.11518,3.933993-.634173,4.089356,1.565277.20194,2.858837-2.397912,2.129966-4.315867,2.52781l-.023868,6.070041c.100308.419102,2.854544.449147,2.853164,2.438114-.002133,3.07408-4.759192,2.088138-6.064624.345758-1.584439-2.114774-1.10213-5.904087-.854157-8.385027-5.623947,1.046582-5.01816-4.53773.228988-4.331815-.284436-1.987715.701747-7.990784,3.829212-6.088854,1.908213,1.160457.116385,4.056555.257795,5.858696Z"/>
  <path d="M102.437868,187.132683c-1.379211-1.379975.37413-7.256005-1.413285-8.30347-2.317979-1.358387-2.861592,1.813865-2.978902,3.441328-.143449,1.990102,1.063097,6.000675-2.070462,6.050506-3.678158.058492-1.536924-7.985331-1.496865-10.120862.025778-1.374224-1.216904-2.443165.37304-3.687244,1.83804-1.438206,2.481892.367057,3.327198.449183.391398.038026.92471-.254864,1.425396-.253526,1.854034.004955,4.036417.412988,5.124729,2.090675.986066,1.52007,1.781048,7.251646,1.422823,9.02575-.349967,1.733209-2.479739,2.542279-3.713674,1.30766Z"/>
  <path d="M146.665195,172.622054c1.184679-.161353,2.692652-.180043,3.737951.453925,1.487849.902372,1.519779,2.968023-.085155,3.681922-1.835165.816311-2.913544-1.029231-4.770237.745452-1.491281,1.425412-2.400541,4.465917-.113168,5.586681,3.079797,1.509035,2.747375-.75199,4.465607-1.467258,2.531149-1.053671,4.056498,2.452349,1.257099,4.616181-4.009174,3.098944-11.147944,1.059415-11.398217-4.43347-.180764-3.96734,2.775769-8.62088,6.90612-9.183434Z"/>
  <g>
    <path d="M132.57344,184.801915l-.352325-.000636c-1.93912,3.481734-6.452616,3.4818-8.877929.483618-2.12544-2.627478-.73496-6.751895,1.20079-9.127719,1.863238-2.286827,4.021854-2.0825,6.49765-3.350733,1.00678-.2213,1.582442.498625,2.062208,1.267378,1.258472,2.016512.968534,4.85333,1.862846,7.015147.734178,1.774727,3.793076,2.549726,1.692416,4.796189-1.493385,1.597038-3.191802.409356-4.085657-1.083245Z"/>
    <path class="st3" d="M129.384505,177.392696c.734521-.067021.807646,2.023094.696825,2.616512-.141332.756801-1.434899,3.568989-2.369104,3.32467-.270166-.070656-1.082054-.964808-1.19491-1.246209-.500911-1.248997,1.428366-4.56369,2.867189-4.694974Z"/>
  </g>
  <g>
    <path d="M81.929099,175.01743c6.111806-1.03773,9.196042,5.452375,6.895053,10.50172-1.045378,2.294003-4.327817,3.048546-6.58504,2.27385-5.861-2.01154-6.320714-11.755007-.310013-12.77557Z"/>
    <path class="st5" d="M85.052168,183.542848c-.381409.379542-1.370913.348627-1.873147.190457-2.117403-.666838-1.963704-5.692089.742824-4.827948,1.403164.448003,1.931272,3.840464,1.130324,4.637491Z"/>
  </g>
  <g>
    <path d="M140.728293,141.838858c-.112031.111943.198607,1.96461-.238473,2.398847,2.864219.227823,6.877847.784246,6.471984,4.563725,5.36638-.136293,14.002236,2.445486,13.1911,9.244985-.381259,3.195976-4.233352,2.403645-6.373256,2.506822-4.471244.215584-8.950079.260752-13.413479.225151-1.899506-.015151-4.061967.331571-5.970607.001541-3.022149-.52257-1.844477-2.541694-1.807498-4.650018.036289-2.06901-.49453-10.349785.881309-11.421392.709415-.552546,2.511667-.688535,3.424134-.710829-.358864-.709327-.357461-1.445856-.000054-2.155342l-45.892096-1.206437c-.505813.071061.530077,2.843669-.138462,3.361695,1.419753.236555,3.016094-.148812,3.781848,1.376437,1.051625,2.094653.488682,8.619565.523595,11.235898.031665,2.372941,1.013106,3.765751-2.299706,4.348798-5.729719.001556-11.497644-.174993-17.237918-.384683-3.727318-.136158-8.532319,1.224481-8.034648-4.227819.49359-5.407593,8.650638-7.823915,13.198539-7.544806-.376694-3.77347,3.381906-4.179289,6.205677-4.587273l.025272-3.813146c-7.599613.478367-15.271977.135798-22.904033.229091-7.546915.092253-16.981574,1.19773-24.386403-.047719-2.314565-.389296-3.622465-1.954005-3.957582-4.218684-1.436455-9.707398-.273274-21.735455-.055949-31.587887.385517-17.477379-.995097-35.118205-.389352-52.61656.073452-2.121841-.122934-6.025204.746946-7.761482.782422-1.561714,3.163407-2.779496,4.842211-3.018646,5.854274-.833957,14.368352.023712,20.582313-.089436,19.596897-.356834,38.954407-.930934,58.500916-.722648,20.693435.220508,41.43978.315446,62.08942,1.183657,6.676158.280698,10.231382.319298,11.136024,8.052797.636009,5.437044-.142455,11.986343-.25207,17.517323-.394625,19.912086-.855552,39.857064-1.432758,59.749285-.076237,2.627343.356376,6.218927.023566,8.663592-.106869.785008-.553698.820607-.68296,1.236309-.191666.616389-.019976,1.225632-.353791,2.04583-1.135733,2.79055-6.942615,2.17372-9.423518,2.342833-12.882398.87814-25.297851,1.276158-38.103815.483774-.369901-.022888-2.195872-.084078-2.27643-.003582Z"/>
    <g>
      <g>
        <path class="st4" d="M141.111792,106.421833c8.373953,5.69567,16.585384,12.470331,24.8119,18.477017,6.384834,4.661961,13.196694,8.90934,19.158289,14.058765-3.293417.200919-6.617158.125847-9.905678.266033-27.159907,1.157795-54.113712-.765455-81.3068-1.233546-10.394674-.17893-20.822381.131204-31.166667.259797-6.379113.0793-12.703922.337131-19.069435-.012298,5.133315-4.543342,11.000261-8.121874,16.521499-12.138363,8.787638-6.39267,17.657299-13.775795,26.572463-19.771361,1.855781-1.248037,3.902701-2.270551,5.735811-3.566103l12.486275,7.336532c5.115006,2.660336,10.140909,3.311728,15.564931,1.064967l14.623435-8.399001c.349663-.018178,5.252936,3.167135,5.973977,3.657561Z"/>
        <path class="st1" d="M186.915046,138.089053c-4.824203-4.061501-10.154138-7.531472-15.237882-11.269828-11.113195-8.172142-22.196224-16.35974-33.323269-24.481955-.249014-.181768-1.117093-.635082-.979515-.934721.115434-.251411,3.984549-2.714346,4.585248-3.091093,10.214563-6.406398,21.147183-11.955182,30.714162-19.34595,7.910796-6.111318,9.779804-11.174188,12.998491-20.414645,1.462439-4.198482,2.551363-8.542975,4.08478-12.713293.989826-.008818,1.320191,7.428569,1.321607,8.503652.02199,16.697213-1.262306,33.902914-1.69112,50.648883-.255956,9.995527.117083,20.328404-.460601,30.260997-.059131,1.016681-.145356,3.629106-1.58103,3.421361-.200157-.028963-.270307-.448229-.430871-.583408Z"/>
        <g>
          <g>
            <path class="st4" d="M165.902426,73.197375l.738544-2.482953c-1.991393-1.537148-1.81638,1.649378-2.334508,1.775515-4.476922-.454588-8.786704.100838-12.926524,1.918223-.636826.073131-1.313807-2.602262-2.575447-1.905124-1.60727.888121.713936,2.315695.45158,2.862897-.118979.248157-3.740002,2.507915-4.448816,3.236197-.620476.637518-1.873054,2.37213-2.351977,3.165508-.316549.524391-1.335989,2.991005-1.476074,3.089246-.736027.516171-4.617923-1.81169-3.79397.649138.350936,1.048111,2.327631,1.273023,3.292175,1.385069-.267806,2.850652-.062367,5.723658.647415,8.518572l-.130832.238578c-4.193728,2.684045-8.363233,5.467725-12.653192,7.994666-5.552383,3.270555-10.66559,7.050121-17.592832,5.690679-3.953733-.775904-12.350107-6.2448-16.124536-8.578219-2.68712-1.661226-5.210939-3.617762-8.058419-5.019082.755768-2.964973.918395-5.806798.713805-8.844902,1.074151-.101588,4.002329-.501633,3.425945-2.110234-.419774-1.171524-3.16917.473594-4.152502.174935-.324189-2.05345-1.975214-4.493148-3.37936-6.043128-.83619-.923036-4.763678-3.371018-4.772706-3.672181-.005814-.193918,2.541004-3.173004.10931-2.89247-1.190828.137381-1.594954,2.122184-2.133599,2.058944-2.700384-1.029358-6.210947-2.152116-9.119281-2.181753-1.099184-.011201-2.619708.493635-3.559475.207238-1.070886-.326356-.375929-2.56603-2.166033-2.12501-.839639.206858.183463,2.413089.324114,2.889279-2.069762.427669-3.895928,1.937049-5.395755,3.35394-3.910546-2.870937-6.823011-5.880166-8.793955-10.387441-1.871586-4.280055-3.231796-8.845901-4.742515-13.252413-1.002851-2.925149-2.026468-5.860202-3.126866-8.747566,1.445757-.67724,2.686004-.423434,4.205999-.472102,9.384044-.300463,19.065225-.308491,28.511481-.46398,34.663821-.57058,69.343436-.256745,104.066851.920952,2.971567.100785,6.097845.4415,9.111452.499428.889716.017102,2.178204-.993834,1.981343.300045-.125824.826985-1.083603,2.689137-1.402067,3.642553-2.011349,6.021576-3.875641,12.850949-6.657337,18.535543-1.940275,3.96509-4.728919,6.8778-8.319493,9.391696-1.507672-1.356322-3.347693-2.956072-5.391942-3.320282Z"/>
            <path d="M102.229572,66.141389c4.506878,6.122745,16.903108,7.937663,21.951162,1.892158.764155-.915145,1.749219-3.95957,3.265215-2.774969,1.384111,1.081545-1.000716,4.122737-1.904803,4.97682-7.103213,6.710337-21.325613,4.611443-25.833599-4.216852-1.053622.675856-6.30399,1.905489-5.690221-.326757.311072-1.131352,2.236147-.94758,3.126744-1.203236,1.575456-.452251,3.323786-2.174513,4.075009-3.601219.346576-.65821.436372-2.597871,1.860756-1.974334,1.354382.592894.567278,2.862062-.028394,3.80866-1.010404,1.605662-2.349104,1.344928-.821869,3.419728Z"/>
            <path d="M75.219046,59.095323c1.285922-.198255,3.456339.263195,4.245959,1.394689,1.42508,2.042083.223543,5.067328-2.074351,5.821143-5.977472,1.960887-6.556585-6.539785-2.171608-7.215832Z"/>
            <path d="M150.98025,59.102426c5.313024-.651126,5.903338,6.881972,1.459057,7.458196-5.088795.659789-6.860409-6.796245-1.459057-7.458196Z"/>
          </g>
          <path class="st2" d="M163.505128,74.4c.039093,1.107621-1.156197,1.740097-.446875,2.847533l1.305104-.190009c.563975-.275873.621602-1.994053,1.171686-1.935913.686294.072536,4.37277,2.272601,3.962314,2.874038l-26.847003,16.803801c-.381221-2.447334-.766514-4.989054-.240189-7.439232,3.017759,1.047178,3.199228-.939936.46958-1.817824,1.190126-3.823053,4.183752-6.885711,7.783397-8.517006.187624.011321,1.401742,2.993525,2.608145,2.191305.967057-.643062-1.056928-2.674202-.68104-3.142153.758709-.251909,1.512695-.62118,2.277537-.841123.650607-.187094,3.231312-.833417,3.722601-.833417h4.914744Z"/>
        </g>
      </g>
      <g>
        <path class="st1" d="M54.989616,78.868746c10.7006,8.399096,23.372215,13.971155,34.270293,21.735002.256792.18294,1.256098.742316,1.122151,1.033733l-50.400689,36.559935c-1.472441-.288029-1.673656-1.188669-1.831414-2.508151-1.008429-8.434492-.24776-18.137782-.020828-26.599352.5012-18.688185-.498559-37.275475-.000011-55.920015.060925-2.278463-.067348-4.571585-.007451-6.848692l3.829451,11.882808c3.288755,9.520706,4.918152,14.290924,13.038498,20.664731Z"/>
        <path class="st2" d="M69.166026,74.4c.630618.066568,5.924614,1.427986,6.113107,1.683138-.074971.769577-1.738723,2.544685-.795143,3.138465,1.468973.924401,2.085705-2.254629,2.785664-2.149938.912935.136545,4.204072,2.869491,4.915997,3.723896.709963.852049,2.691093,3.75597,2.688162,4.75989-.000409.139937-2.68193.919484-1.815284,1.813487.631609.651547,2.116648-.184635,2.288898-.010189.561706.568865.054625,6.294386-.241356,7.440828l-26.846692-16.804257c-.44011-.640986,3.912273-3.233127,4.311723-2.875687.543004,3.46265,3.507672,2.832686,1.678554-.477003.240459.074313.51143-.242628.600986-.242628,1.348993,0,3.023064-.136418,4.315385,0Z"/>
      </g>
      <g>
        <g>
          <path class="st4" d="M92.780769,158.16h-12.70641c-.431666-2.413789-1.873993-4.582461-3.356161-6.477416,5.258121-.943383,10.53786.15538,15.832566-.375272l.164739.589848c-.330334,2.064806-.224665,4.212108.065266,6.262839Z"/>
          <path class="st0" d="M77.916667,158.4h-6.832692c-2.000245,0-.944599-3.181765.134091-4.185765.352122-.32774,2.659014-1.743184,3.026963-1.77628.88867-.079933,3.665363,4.890368,3.671638,5.962045Z"/>
          <path class="st0" d="M92.542234,149.041235c-1.291464-.047383-9.256459.582851-9.592142.239726-.037515-.038346-.035084-.878762.007334-1.073436.203347-.933243,1.319813-1.108051,2.094244-1.26489,1.052441-.213141,6.912534-.733579,7.385679-.078911.286081.395837.017983,1.631457.104885,2.177511Z"/>
        </g>
        <g>
          <path class="st4" d="M151.038386,151.68241c-1.574622,1.877574-2.844028,4.011961-3.399775,6.433614l-12.663318.042861c.763254-1.877051-.291-4.808237.059241-6.420545.206508-.950644.976285-.297519,1.729245-.28699,4.787746.066951,9.53323-.518639,14.274606.23106Z"/>
          <path class="st0" d="M149.839744,158.4c-.26715-.237053,2.490099-5.909179,3.715021-5.914821.337698-.001556,2.506049,1.320889,2.841576,1.63121,1.068693.988407,2.294552,4.283611.276095,4.283611h-6.832692Z"/>
          <path class="st0" d="M144.804596,149.278414l-9.590459-.237169c.064379-.402424-.086979-2.319476-.000237-2.402478.333883-.319487,6.799332.132547,7.684165.350336,1.665636.409974,1.868647.582515,1.906531,2.289311Z"/>
        </g>
      </g>
    </g>
  </g>
</svg>