<?xml version="1.0" encoding="UTF-8"?>
<svg id="Livello_1" xmlns="http://www.w3.org/2000/svg" version="1.1" viewBox="0 0 224.4 225.36">
  <!-- Generator: Adobe Illustrator 30.0.0, SVG Export Plug-In . SVG Version: 2.1.1 Build 123)  -->
  <defs>
    <style>
      .st0 {
        fill: #010102;
      }

      .st1 {
        fill: #ff86b3;
      }

      .st2 {
        fill: #f8a200;
      }

      .st3 {
        fill: #f2f2f2;
      }

      .st4 {
        fill: #00c6d8;
      }

      .st5 {
        fill: #fcfcfc;
      }

      .st6 {
        fill: #ffd888;
      }

      .st7 {
        fill: #fdfdfd;
      }
    </style>
  </defs>
  <path class="st0" d="M152.713157,174.239715l4.901174-6.736994c3.831837-1.228723,3.81435,1.6256,4.182233,4.48767.389014,3.026459.877877,7.055139.986949,10.052036.115812,3.182082-.66151,5.376042-3.947279,2.991444l-1.08621-9.832668c-.415633-.108366-.479199.172821-.719634.357215-1.216674.933087-3.169148,4.30725-4.642334,4.196107-.550642-.041543-1.763431-.575543-2.170109-.973138l-3.012681-4.779918-1.261163,11.818723c-.576504,1.231602-3.702882,1.464066-4.000821-.435259-.445337-2.83897.598665-7.782744.941269-10.787562.196064-1.719585.20257-6.941332,1.184236-8.174483.580023-.728615,2.637222-.787975,3.35975-.209288,1.924546,1.541408,3.41317,6.191273,5.284619,8.026115Z"/>
  <path class="st0" d="M102.905608,184.745113c-.240496-.236281-.192665-.914991-.422711-.911354-.460696.007285-1.575757.828963-2.410598.944894-5.495998.763205-6.268745-3.589874-5.823913-7.989469.201505-1.99298.761379-5.84273,3.388293-5.376298,2.61137.463672.78798,4.545489.662185,6.310824-.12944,1.816482-.114195,4.088231,2.275058,2.517479,2.589855-1.702632,2.096453-5.113015,2.571577-7.745375.271061-1.501774,1.544124-2.301157,3.000684-1.673974,2.069827.891252.430795,6.068293.303046,7.861237-.104548,1.467314.28974,4.281604-.053407,5.466518-.347994,1.20165-2.698837,1.373024-3.490213.595517Z"/>
  <path class="st0" d="M118.193246,170.878885c1.558373.11518,3.933993-.634173,4.089356,1.565277.20194,2.858837-2.397912,2.129966-4.315867,2.52781l-.023868,6.070041c.100308.419102,2.854544.449147,2.853164,2.438114-.002133,3.07408-4.759192,2.088138-6.064624.345758-1.584439-2.114774-1.10213-5.904087-.854157-8.385027-5.623947,1.046582-5.01816-4.53773.228988-4.331815-.284436-1.987715.701747-7.990784,3.829212-6.088854,1.908213,1.160457.116385,4.056555.257795,5.858696Z"/>
  <g>
    <path class="st0" d="M47.295411,165.665781c.605614-.619397,2.134835-.717137,2.904109-.278302.56564.322672,2.00489,3.031889,2.42934,3.807374,1.884098,3.44231,4.099941,7.853489,5.212623,11.581801.622989,2.087476,2.387394,6.154451-1.358657,5.680306-.374224-.047366-.958437-.186986-1.218868-.460017-.198585-.208193-1.228319-3.099028-1.397885-3.640628-.218373-.697488-.103516-2.542155-.99956-2.605823-1.492821.51102-4.577966.16261-5.871935.854347-1.351558.722523.163382,5.360539-3.486896,5.171755-1.724968-.089211-1.658712-.727837-1.52213-2.268408.347862-3.923703,1.613997-8.676198,2.976311-12.378237.312349-.848796,1.960919-5.083059,2.333548-5.464168Z"/>
    <polygon class="st5" points="51.304162 175.918592 47.709757 176.158799 49.150452 171.361783 50.790514 174.395144 51.304162 175.918592"/>
  </g>
  <g>
    <path class="st0" d="M179.733976,174.069879c.419145.502761.142291,2.173552-.032257,2.823915-.940808,3.505436-4.3824,3.310163-7.24392,4.032463-.238816.060281-.7614-.089697-.5596.390471.066226.15758,1.141264,1.184725,1.346305,1.291787,2.813789,1.469217,5.221056-3.626239,7.287885-1.29398,1.743744,1.967682-.913705,3.877785-2.483226,4.725056-8.122242,4.384609-15.03581-6.308668-8.67946-12.768743,1.746101-1.774595,5.647363-2.607402,7.834555-1.344628.359103.207328,2.283003,1.847726,2.529718,2.143659Z"/>
    <path class="st3" d="M175.731405,176.157161c-.141546.188585-3.917203.858126-4.073833.721539-.140679-1.808494,5.025722-1.989762,4.073833-.721539Z"/>
  </g>
  <g>
    <path class="st0" d="M66.170211,172.80113c2.132272-.687947,4.2154-1.356004,6.216677.134562,4.982307,3.71086.581767,12.924996-5.116626,12.327581-.447892-.046957-.849617-.35034-1.250923-.388086-.993875-.093482-2.602428.616383-3.207665-.914043.01222-2.393196.000122-4.81894-.241559-7.19818-.282883-2.784849-1.294117-6.196694-1.414752-8.922022-.052812-1.193104.350666-2.370316,1.64989-2.628332,3.211763-.637832,3.043129,5.665642,3.364959,7.588519Z"/>
    <path class="st5" d="M68.984963,176.200489c1.832323-.369622,1.758813,2.784546.4184,4.037131-1.592907,1.488535-2.273187,1.306225-2.482945-.867454-.169526-1.756764.138701-2.78119,2.064545-3.169677Z"/>
  </g>
  <g>
    <path class="st0" d="M82.408586,172.61743c6.111806-1.03773,9.196042,5.452375,6.895053,10.50172-1.045378,2.294003-4.327817,3.048546-6.58504,2.27385-5.861-2.01154-6.320714-11.755007-.310013-12.77557Z"/>
    <path class="st7" d="M85.531655,181.142848c-.381409.379542-1.370913.348627-1.873147.190457-2.117403-.666838-1.963704-5.692089.742824-4.827948,1.403164.448003,1.931272,3.840464,1.130324,4.637491Z"/>
  </g>
  <g>
    <path d="M100.858101,26.232381c5.443027,6.213119,8.256008,19.670869,9.599196,27.712185.200211,1.19861.349021,2.436072.303057,3.65659,11.33197.183869,22.640565.08718,33.930018.969921,1.949186.15241,4.051358.626403,5.989821.705314,2.205038.089763,2.31232-.236126,3.707471-1.803605,1.925035-2.162813,3.663435-5.106044,5.519941-7.367895,4.071926-4.960981,13.703077-16.082908,19.424727-18.300968,2.966552-1.150016,4.048375-.006384,5.983684,2.160716,3.003655,3.363403,4.56589,9.108952,5.641529,13.553585,5.898992,24.375136,7.967705,58.320468,4.642406,83.130926-.452431,3.375642-1.95186,12.232636-4.040221,14.675458-4.944862,5.784164-23.258822,5.240275-30.581797,5.385495-32.772219.649896-69.452853-3.426673-101.28501-11.386867-7.994519-1.999171-17.302193-4.584484-24.984483-7.388862-3.551053-1.296292-6.905886-5.963095-6.761711-9.81059.364004-9.713928,10.508647-26.360968,15.683801-34.88659,7.882719-12.986103,16.941864-26.835775,26.034183-38.977973,4.947356-6.606871,13.795174-18.478657,20.364175-23.054046,2.152493-1.499238,6.214754-2.442362,8.586962-.9265.318161.203308,1.998086,1.674995,2.242252,1.953706Z"/>
    <path class="st6" d="M139.051282,119.28c.358172.519962,1.009699-.003091,1.5039.049451,2.421444.257444,6.416317,1.832865,9.187054,2.328161,4.371327.781417,8.861844,1.116509,13.282224,1.463627.434091.368353-1.935197,2.025998-2.168188,2.266202-5.376519,5.542958-7.791333,12.007556-8.615158,19.696544-.097819.912973.181498,2.322212.00807,3.079958-.054138.236541-.403011.2667-.606019.271398-8.331818.19283-17.558802-.642787-25.900237-1.312755-13.292042-1.067591-28.024891-2.802023-41.163199-5.112776-6.149136-1.081504-12.266087-2.570755-18.349172-3.949726-.929443-.360945-.295828-1.105912-.289346-1.850404.064423-7.399708-.897252-12.90741-4.284237-19.492599l-2.437957-4.156972c8.622393,1.714056,17.428975,2.466492,26.210728,1.665201,1.015068,1.691485,2.136509,3.528004,3.392368,5.057578.89709,1.092611,2.495436,3.100331,3.958656,3.11711l.487482.111632c11.138582,11.53922,37.897355,13.734407,45.231817-3.095111l.551214-.13652Z"/>
    <path class="st1" d="M193.474315,123.838754c.352431.352311-.804493,8.71806-1.016645,9.904752-1.333612,7.459665-1.902677,11.650294-10.007499,13.261797-8.177181,1.625891-16.806773,1.039976-25.047615,1.304758-.83116.026706-1.827957.468066-2.7691.250745.467945-5.808025,1.434856-12.322445,4.696939-17.260008,1.939634-2.935874,4.680603-5.468468,7.279107-7.8094,8.921559.755454,17.921807.728455,26.864814.347354Z"/>
    <path class="st1" d="M63.050208,137.521279c-8.807148-2.551162-18.287944-4.64329-26.772536-8.11775-4.590591-1.879858-6.338413-3.753116-5.552629-9.005638.741946-4.95949,3.279128-9.995325,5.239694-14.5579,4.730853,2.466,9.944449,3.78626,15.092096,5.16857,2.675304.718406,3.782568.169667,5.756554,2.63729,2.02915,2.536582,4.909831,9.210765,5.603489,12.390516.801968,3.676249.70609,7.742145.633333,11.484912Z"/>
    <path class="st2" d="M139.051282,119.28c-.012066.250101-1.112271,2.435053-1.351124,2.847435-8.148093,14.06777-34.062694,11.842873-44.328668,1.241551-.292562-.302119-.590084-.484976-.590721-.968986-.000358-.272228.314978-.489514.147113-1.209027-.127779-.547695-.770082-1.377453-1.106088-1.910973.988813.073036,1.016076,1.597998,1.915906,1.682761l-.00091.234153c-.956818.026399-.120907,2.287314.60215.487672l2.821899,2.471955c2.516491,1.343183,4.909858,3.135771,7.786107,3.959084.263384.075393.868682.245383,1.126526.309002.916595.226153,1.90974.020097,2.787967.325972.48404.168585.486481.599391.565046.590902,2.998196-.323983,5.791183.39385,8.880994.250506,5.188596-.240713,10.42535-2.147117,14.925557-4.651273.086178-.047954.305026-.534346.665951-.620308.246003-.058591-.069565.59375.354435.477814.108915-.598355.39973-1.483086,1.164058-1.243418l2.914571-5.474822c.112533.370572.725329,1.073602.719231,1.2Z"/>
    <g>
      <path class="st6" d="M98.774359,78.84c-.479229-4.031329-3.368779-8.547371-6.739181-10.773611-3.979196-2.628364-11.278365-2.161801-15.882646-1.552411-7.226247.956414-13.993799,3.889747-20.531933,6.923659,6.847102-10.64279,14.037359-21.060525,21.956987-30.937081,3.396896-4.236265,10.743929-13.462315,15.28344-15.900209,1.54748-.831057,2.901519-1.104522,4.458515-.063959,3.380363,2.259146,7.082265,12.377958,8.097983,16.373342,1.203723,4.734913,1.872494,9.882486,2.708794,14.681995-1.034215.362338-2.17674.00669-3.170566.07619-3.158181.220858-7.586695.369921-10.559763.948246-1.010833.196629-2.148191.712485-1.251727,1.854294.709355.903492,1.11535.264913,1.916928.250165,18.287922-.336484,35.637335-.718975,53.936598.962238,1.300322.119465,2.938442.798931,4.214312.37173.294776-.0987,2.235297-2.229506,2.614973-2.660856,6.667394-7.574831,13.061041-17.317455,21.365316-23.251834,3.03791-2.170943,4.445767-3.153141,6.794924.353897,2.869588,4.283985,4.01155,8.626031,5.09634,13.61853,3.190425,14.683201,4.748955,30.498449,5.098023,45.536093.011448.493186.18645.944603.254471,1.425836l-7.073143-9.239647c-7.336636-8.108174-15.994273-14.997944-26.786726-17.824625-10.863758-2.845357-17.858.848085-25.953438,7.514838-4.604604,3.791983-8.325147,8.502953-11.274809,13.668829-6.899425-5.088175-15.673089-10.295036-24.573673-8.87565-.093562-1.11212.129112-2.393896,0-3.48Z"/>
      <path d="M166.711997,52.887258c2.770622-3.463683,10.153216-11.618255,14.751873-7.145207,3.737645,3.635554,5.25602,15.60601,4.825158,20.626217-.22397,2.609597-2.409953,4.966224-5.143685,4.663531-5.144167-.56959-11.167838-2.138573-16.144628-3.768986-2.859844-.936895-4.461811-1.608363-3.724335-5.053824.538094-2.513954,3.777384-7.248698,5.435617-9.321731Z"/>
      <path d="M81.355737,42.323c3.654304-4.038547,10.022438-9.367867,14.305071-2.846119,1.970658,3.00099,3.20281,9.391367,2.84457,12.933613-.18565,1.835686-.417715,2.760144-2.309112,3.208655-3.031403.718844-7.55218,1.165952-10.73057,1.497954-2.576115.26909-6.121643.734271-8.631266.593172-2.117416-.119048-2.422955-2.054505-2.270302-3.828404.247989-2.881756,4.769456-9.32409,6.79161-11.55887Z"/>
    </g>
    <g>
      <path class="st2" d="M91.821795,119.28c-3.633816-5.769892-7.75966-11.174093-7.526843-18.5096.118635-3.737891,1.810584-6.647871,3.935288-9.568587.29305-.043295.308217-.085731.490389.147612.368562.47209.727549,1.5345,1.18284,2.130952,2.659024,3.483446,6.606684,6.657784,11.220714,5.472095,4.856812-1.248077,9.247703-6.133265,13.120113-9.184618,1.333638-1.05087,1.65157-.526507,3.068628.273719,10.795885,6.096534,17.505181,16.466935,21.019128,28.038427l.146199.745978-2.476174,4.651322c-.177907.310325-.503591.509938-.977054.598839-.24017.869017-.654337,1.20622-1.242503,1.01161-6.546242,4.056259-14.143658,5.759727-21.752227,4.6702-1.429871.222227-2.578029.024912-3.444474-.591944-5.21732-.187917-10.263489-3.342742-14.11968-6.722463-.40719.501526-1.123103.552654-1.362025-.110876.231346-1.239561-.321374-2.304609-1.282319-3.052667Z"/>
      <path d="M120.528978,97.499978c.864708.750162-.223634,1.819605-.406221,2.471076-.858133,3.061817-.044955,6.9958,2.140302,9.355124.836259.902872,4.68907,3.238344,4.921423,3.711678.455552.928021-.115106,2.131334-1.156941,2.10134-1.389944-.040016-6.709421-4.410573-7.120109-6.178851-5.488854,3.948017-12.543137,5.737184-19.233041,4.258653-1.422363-.314355-3.345527-.786098-2.461911-2.583611.62725-1.275996,4.284577.138188,5.521594.240663,5.776652.478541,10.336591-1.25375,15.218185-4.089691-.882787-2.080039-.959374-4.545496-.36255-6.710884.293861-1.066185,1.520486-3.806337,2.939269-2.575497Z"/>
    </g>
    <g>
      <path class="st4" d="M178.692057,83.43695c6.227055,5.62902,11.445476,12.15524,15.690285,19.453032.868149,6.273373-.578371,12.518981-.430447,18.788322-5.537453-.194399-11.128267.228214-16.671382.011579-8.049368-.314584-17.382538-1.179565-25.333258-2.479648-3.948921-.645718-7.759828-1.769181-11.657792-2.607907-2.140686-9.357779-7.864992-17.580724-14.921812-23.878846,3.262852-6.959284,9.522985-12.793537,15.906557-16.938176,4.737638-3.075989,8.027099-4.528644,13.883218-3.940729,8.85175.888655,17.103344,5.778738,23.53463,11.592375Z"/>
      <ellipse cx="157.006231" cy="100.401342" rx="6.223967" ry="6.230623"/>
    </g>
    <g>
      <path class="st4" d="M96.583077,82.766261c-12.582907,3.859305-19.251274,17.409643-12.19339,29.311323-5.982831.137443-11.899628-.171723-17.828511-.989948-7.709027-1.063896-16.243555-2.888002-23.590394-5.424376-.835609-.28848-5.140185-1.76117-5.318258-2.375605l7.227259-13.119873,7.510538-11.68143c7.699121-4.119103,15.420761-8.027834,24.241938-9.332134,4.862445-.718962,10.900122-1.406209,14.952833,1.762738,3.816721,2.984419,5.005546,7.098576,4.997986,11.849304Z"/>
      <ellipse cx="72.856231" cy="91.041342" rx="6.223967" ry="6.230623"/>
    </g>
  </g>
</svg>