<?xml version="1.0" encoding="UTF-8"?>
<svg id="Livello_1" xmlns="http://www.w3.org/2000/svg" version="1.1" viewBox="0 0 224.4 225.36">
  <!-- Generator: Adobe Illustrator 30.0.0, SVG Export Plug-In . SVG Version: 2.1.1 Build 123)  -->
  <defs>
    <style>
      .st0 {
        fill: #d2bef8;
      }

      .st1 {
        fill: #ff626b;
      }

      .st2 {
        fill: #ff86b3;
      }

      .st3 {
        fill: #f8a200;
      }

      .st4 {
        fill: #00c6d8;
      }

      .st5 {
        fill: #ffd888;
      }

      .st6 {
        fill: #fdfdfd;
      }
    </style>
  </defs>
  <path class="st1" d="M53.536015,170.712129c.378389-.42141,3.71343-2.188104,4.393307-2.44085,1.724394-.641048,4.928151-.920268,6.497529.152947,1.866157,1.276167.954695,3.921304-1.253206,3.916687-1.995487-.004173-2.683265-.748583-4.845471.409643-3.344556,1.791573-5.348813,10.290857-.885354,10.830028.965319.116607,2.924979-.240294,3.775306-.736981,1.45641-.850709,2.037089-4.082188,4.604711-2.61625,3.354061,1.91494-1.748193,6.2007-3.844516,6.977257-8.439341,3.126248-13.177227-3.719596-10.781907-11.513438.241784-.786711,1.901577-4.491218,2.3396-4.979042Z"/>
  <path class="st1" d="M109.322733,173.278885c1.558375.11518,3.933993-.634172,4.089356,1.565277.201937,2.858801-2.39797,2.130064-4.315973,2.527755-.129511,2.046305-.071135,4.019889-.023696,6.070094.100642.419332,2.854479.449138,2.853099,2.438116-.002133,3.07408-4.759192,2.088138-6.064624.345758-1.584438-2.114773-1.102131-5.904086-.854157-8.385027-5.623948,1.046586-5.01816-4.537742.228992-4.331809-.251529-1.986652.70236-7.990416,3.829209-6.088861,1.908213,1.160457.116385,4.056554.257795,5.858696Z"/>
  <path class="st1" d="M155.353503,173.278885c1.558375.11518,3.933993-.634172,4.089356,1.565277.201937,2.858801-2.39797,2.130064-4.315973,2.527755-.129511,2.046305-.071135,4.019889-.023696,6.070094.100642.419332,2.854479.449138,2.853099,2.438116-.002133,3.07408-4.759192,2.088138-6.064624.345758-1.584438-2.114773-1.102131-5.904086-.854157-8.385027-5.623948,1.046586-5.01816-4.537742.228992-4.331809-.251529-1.986652.70236-7.990416,3.829209-6.088861,1.908213,1.160457.116385,4.056554.257795,5.858696Z"/>
  <path class="st1" d="M95.005816,187.132683c-1.379211-1.379975.37413-7.256005-1.413285-8.30347-2.317979-1.358387-2.861592,1.813865-2.978902,3.441328-.143449,1.990102,1.063097,6.000675-2.070462,6.050506-3.678158.058492-1.536924-7.985331-1.496865-10.120862.025778-1.374224-1.216904-2.443165.37304-3.687244,1.83804-1.438206,2.481892.367057,3.327198.449183.391398.038026.92471-.254864,1.425396-.253526,1.854034.004955,4.036417.412988,5.124729,2.090675.986066,1.52007,1.781048,7.251646,1.422823,9.02575-.349967,1.733209-2.479739,2.542279-3.713674,1.30766Z"/>
  <path class="st1" d="M139.233143,172.622054c1.184679-.161353,2.692652-.180043,3.737951.453925,1.487849.902372,1.519779,2.968023-.085155,3.681922-1.835165.816311-2.913544-1.029231-4.770237.745452-1.491281,1.425412-2.400541,4.465917-.113168,5.586681,3.079797,1.509035,2.747375-.75199,4.465607-1.467258,2.531149-1.053671,4.056498,2.452349,1.257099,4.616181-4.009174,3.098944-11.147944,1.059415-11.398217-4.43347-.180764-3.96734,2.775769-8.62088,6.90612-9.183434Z"/>
  <path class="st1" d="M166.072086,167.089944c.53929-.157713,1.924825-.111743,2.480335.057128,2.378042.72291.488792,4.013411.24082,5.546697-.330696,2.044791-.146378,5.215092-.745543,7.173657-.50176,1.640164-2.278071,2.235713-3.357483.986291-1.17505-1.360123-.721196-7.888818-.398946-9.786735.169119-.996039.709969-3.663874,1.780817-3.977038Z"/>
  <path class="st1" d="M165.358047,182.456373c4.214111-.859587,5.276712,6.058153.429917,5.70847-3.477455-.250889-3.195279-5.144396-.429917-5.70847Z"/>
  <g>
    <path class="st1" d="M125.141388,184.801915l-.352325-.000636c-1.93912,3.481734-6.452616,3.4818-8.877929.483618-2.12544-2.627478-.73496-6.751895,1.20079-9.127719,1.863238-2.286827,4.021854-2.0825,6.49765-3.350733,1.00678-.2213,1.582442.498625,2.062208,1.267378,1.258472,2.016512.968534,4.85333,1.862846,7.015147.734178,1.774727,3.793076,2.549726,1.692416,4.796189-1.493385,1.597038-3.191802.409356-4.085657-1.083245Z"/>
    <path class="st6" d="M121.952454,177.392696c.734521-.067021.807646,2.023094.696825,2.616512-.141332.756801-1.434899,3.568989-2.369104,3.32467-.270166-.070656-1.082054-.964808-1.19491-1.246209-.500911-1.248997,1.428366-4.56369,2.867189-4.694974Z"/>
  </g>
  <g>
    <path class="st1" d="M74.497047,175.01743c6.111808-1.03774,9.19604,5.45239,6.895053,10.50172-1.045364,2.293968-4.327772,3.048565-6.58504,2.27385-5.862941-2.012212-6.267644-11.764008-.310013-12.77557Z"/>
    <path class="st6" d="M77.620117,183.542848c-.381409.379542-1.370913.348627-1.873147.190457-2.117403-.666838-1.963704-5.692089.742824-4.827948,1.403164.448003,1.931272,3.840464,1.130324,4.637491Z"/>
  </g>
  <g>
    <path d="M140.728795,139.201001c.071.344694.189236,2.058629.262629,2.137339.198608.213,4.325566.06078,5.619234,1.214197.559559.498895,1.103067,1.889103.830708,2.645033,4.411128-.486345,13.390001.907161,14.125464,6.382994.350684,2.610991-.123497,3.848395-2.73954,4.439589-6.302172.730045-12.62533,1.643637-18.919343,2.138076-1.499807.11782-3.717591.900388-5.023568-.026692-1.208925-.858184-.731026-4.159968-.869405-5.610653-.200267-2.099478-1.499192-8.545399-.068305-9.974328.499345-.498662,2.832703-.842315,2.94068-.953002.11376-.116615-.22476-1.733141.007217-2.150523l-45.43275.956707c-1.396987.269827.209831,2.616072-.598919,3.597866,1.419764.236556,3.0161-.14881,3.781848,1.376437,1.050903,2.093229.489378,8.626172.523595,11.235898.031267,2.384767,1.009957,3.765088-2.299706,4.348798l-22.729287-.412897c-2.457512-.466025-2.894076-2.814354-2.414853-5.028706,1.015355-4.691662,8.850546-7.038493,13.070113-6.715704-.376717-3.773469,3.381979-4.179307,6.205677-4.587273l.025479-3.572995c-4.983615.250747-9.988863.660575-14.974066.967747-4.316625.265977-8.64152.442656-12.952411.713585-6.245416.392509-13.45061,1.494208-19.634313.690323-2.486679-.32327-3.467593-2.185559-3.886904-4.451677-1.829184-9.885615-1.277212-20.986698-1.5239-30.915679-.426471-17.16513-2.658638-34.348635-3.020529-51.606336-.049141-2.343426-.822813-7.628699.495497-9.476264.299407-.419608,2.492227-2.058733,3.015544-2.259594.638622-.245117,2.71247-.52605,3.481267-.598903,5.680594-.538301,11.735624-.413442,17.466494-.812162,3.67098-.255405,7.377333-.870277,11.039405-1.128982,21.380853-1.510438,42.713107-2.549529,64.010989-3.360782,14.236279-.542271,28.447847-1.058844,42.662028-1.212347,2.850891-.030788,6.887679-.321935,9.605811.00374,7.006271.839461,5.906811,13.169559,6.097395,18.136073.894757,23.316862,1.541245,46.747651,1.91794,70.079993.04946,3.063557.596205,5.033887-.45737,8.162344-.825889,2.452371-4.596473,2.696343-6.84898,2.983695-11.55151,1.473627-23.366673,2.161151-34.985065,2.438011-2.592192.061771-5.209853.209776-7.805799.207052Z"/>
    <g>
      <path class="st2" d="M186.675177,133.049382c-4.683494-3.856632-10.740074-7.105305-15.819511-10.447782-5.396762-3.55129-10.817928-7.099934-16.1998-10.662874-6.452601-4.271791-12.56061-9.117826-19.443032-12.701151-.075814-.333537.206025-.398038.400219-.559556,7.038855-5.854487,16.143266-10.729837,23.666804-16.158829,6.716537-4.846659,15.960943-11.420943,19.032583-19.33604,2.4651-7.375325,4.502769-14.848369,6.410002-22.385583,1.362819,1.629275,1.104007,3.267472,1.342721,5.1377.785831,6.156665.553101,12.669673.685206,18.994633.422999,20.252527,1.08029,40.654188,1.437265,60.958888.027149,1.544228.826957,6.539337-.243328,7.415381-.911856.746368-.927049.026901-1.26913-.254785Z"/>
      <g>
        <path class="st4" d="M160.147938,70.801702c.247591.267507-1.288675,1.819747-.41617,2.578452,1.377538,1.197867,1.962394-1.992113,2.104642-2.093532.323453-.230615,4.811277,1.890727,4.304473,2.62894l-25.887986,18.243873c-.556577-2.437546-.944335-4.929377-.718966-7.437975,2.988351.954809,3.390623-1.367791.475611-1.682635.737939-3.969799,3.744721-7.071314,7.113973-9.093439l.293539-.006493c.263441.759888,1.551009,2.482122,2.418658,2.032546,1.133464-.587308-.568357-2.056639-.709135-2.873357,3.131765-2.005473,7.372129-2.480688,11.021361-2.296382Z"/>
        <path class="st4" d="M71.919208,76.806311c.156032.901888-1.494901,2.47457-.617078,3.12923,1.176178.877167,2.127234-1.204164,2.301604-2.175095,3.702176,1.098091,7.248453,4.398954,8.38572,8.1494-2.654245.961526-2.187719,2.768151.721036,1.688808.349682,2.444497.387306,4.99503-.001855,7.440922-8.800372-5.032296-18.073225-9.204651-26.550168-14.804503-.334499-.220969-.352819-.739975-1.017209-.556632-.581539-.561775,3.531599-3.477562,4.05656-3.1021.117675.084164.895494,2.371294,1.577131,2.374278.146831.000643.815319-.772661.846481-1.079505.074327-.731859-.727342-1.311543-.726834-2.028945,3.745461-.70979,7.411743-.046754,11.024611.964142Z"/>
        <g>
          <path class="st5" d="M162.305904,69.357323c.159211-.633679.926454-2.255439.385116-2.647773-1.610263-1.167035-1.468612,1.661617-1.855507,1.897953-.280413.171291-4.979888.155736-6.016585.339041-2.45102.433381-4.76387,1.371274-7.035223,2.34152-.658237.0758-1.13903-2.434749-2.493759-1.807151-1.821547.843859.686371,2.105193.460124,2.848536-.077056.25317-3.395188,2.651132-4.054403,3.397764-1.585843,1.796139-2.900852,4.199302-3.587255,6.490369-.826129.604596-4.53611-1.600618-3.80636.890778.341777,1.166839,2.337476,1.02137,3.299854,1.142313.014587,2.922896.232494,5.734645,1.130257,8.513616l-.134596.243085-13.396738,9.459145c-3.148339,1.675203-6.356878,4.61097-9.83074,5.46696-6.099989,1.503092-9.498681-.575957-14.683435-3.167818-5.586471-2.79268-10.956692-6.007641-16.433575-9.004302.712796-2.831964.519703-5.609266.363478-8.491006.134338-.482965,3.854433-.695646,3.211255-2.489216-.49886-1.391124-3.650059.907844-4.151396.414351-.254401-1.939687-1.884287-3.989587-3.227487-5.41708-1.435136-1.525199-3.460172-2.925572-5.409474-3.702421.315128-1.004459,1.954826-2.216065.410629-2.946809-1.338461-.633386-1.830882,1.944811-2.243779,2.009722-.39301.061784-1.631685-.541377-2.187248-.673876-2.361041-.563095-5.676626-1.221208-8.085159-1.021512-.852873.070713-2.035997.679955-2.827719.484279-.699123-.17279-.517407-2.587281-2.171292-2.180052-1.062666.261656.567817,2.513785.306141,2.872969-.075154.103158-1.761473.925685-2.216664,1.263567-.97331.722473-1.853568,1.479858-2.715532,2.330313-.260874.044961-3.341897-2.234869-3.795394-2.620982-5.710721-4.86218-8.152063-13.058436-10.867798-19.840579-1.196019-2.98688-2.486769-5.948368-3.644618-8.949614.243964.018195.48042-.027553.694725-.148785,2.022908-1.144351,7.433115-.674279,9.985294-.804732,12.691732-.648729,25.209304-1.818236,37.865433-2.653126,31.216259-2.059251,62.692064-2.859207,93.97484-3.607869,1.122207-.026857,2.453342.27256,3.346838.23479.826061-.034919,1.927686-1.329287,1.767017.080122-.152452,1.33733-1.379388,4.334181-1.799261,5.885501-1.920692,7.09646-4.19238,17.810754-9.173246,23.216943-.477164.51791-3.327116,3.163672-3.764476,3.199786-1.804646-1.041832-3.403066-2.703142-5.592283-2.848722Z"/>
          <path d="M71.142693,59.814616c1.481295-.248944,4.030092.423882,4.634025,1.967817,2.207889,5.644392-7.108169,8.113211-7.45178,1.930019-.085742-1.542903,1.227838-3.630638,2.817755-3.897837Z"/>
          <path d="M146.665808,55.983108c2.919249-.38524,4.893645,1.396656,4.612916,4.377716-.209474,2.224404-1.844106,3.163469-3.954032,2.995782-4.615349-.366805-5.022138-6.797699-.658884-7.373498Z"/>
          <g>
            <path d="M100.054514,67.357845c4.980377,4.329086,16.157094,4.339232,20.395889-1.138618.732991-.947253,1.326602-3.348024,2.59342-3.049912,2.45848.578538-.197866,3.17293-.012981,4.090009.083294.413157,1.813253,2.104022,2.266102,2.789724,2.733122,4.138482,1.709274,8.656563-2.189047,11.550515-6.203523,4.605238-15.258035-2.081129-16.236468-8.823655-4.480619-.813031-8.623352-3.302392-10.998071-7.238095-1.239853.608046-4.35031,1.962364-5.494501.828123-1.568623-1.554982,2.260193-1.963108,2.859031-2.188329,1.681352-.632351,3.209688-2.363577,3.957766-3.957021.216613-.461398.125441-1.118944.359044-1.502414.759792-1.247233,2.287075-.057244,2.170951,1.3726-.127386,1.568517-2.210528,3.645363-2.119104,4.293659.042915.304316,2.110086,2.679716,2.44797,2.973415Z"/>
            <path class="st3" d="M112.699092,72.891831c.061031-.014167.591843-.186285,1.018347-.275229,1.761544-.367356,1.477936.862507,2.217794,2.004171.514763.794323,2.507623,3.76397,3.202868,3.998487.589722.198922,1.11703.208024,1.227035-.508102.203885-1.327283-4.204177-5.980665-3.850077-6.348683.864053.189117,4.805135-2.943458,5.037723-2.771546,1.848386,2.502086,3.334337,3.464,2.853066,6.947753-.279558,2.023618-2.841115,4.509943-4.881822,4.713382-4.213518.420047-6.995614-1.317295-9.199995-4.734088-.556159-.862047-1.295347-1.920369-1.240696-2.957977,1.067183-.163869,2.647063.156693,3.615759-.068169Z"/>
          </g>
        </g>
      </g>
      <g>
        <path class="st5" d="M157.896691,116.016308c7.125218,4.654279,14.134716,9.634145,21.418059,13.957161l5.526094,3.943827c-2.032886.201094-4.081738.521187-6.113846.720903-33.405946,3.283136-67.250538,2.059619-100.927757,3.844247-10.811467.572923-21.87213,2.010102-32.583193,1.941397-.457861-.002937-1.041101.362045-1.581561.214843-.123641-.473566.197245-.464259.402838-.674431,4.822259-4.929684,12.198836-9.750675,17.690028-14.210885,5.201875-4.225214,10.249128-8.779915,15.41176-12.958811,4.381453-3.54657,8.781167-7.033669,13.467322-10.21122l13.075748,6.86359c1.62014.5148,3.180499,1.286193,4.862947,1.609838,9.892186,1.902917,16.833415-6.466726,24.77118-10.622491,5.163518,2.688015,9.957049,5.963915,14.823321,9.147657,3.247794,2.124858,6.497835,4.305409,9.757061,6.434375Z"/>
        <path class="st2" d="M47.786965,77.677826c2.045298,1.731203,5.014933,3.609258,7.279774,5.076541,10.637356,6.891439,22.327375,11.88563,33.089779,18.475416.187162.114599.406527-.078095.307232.407343-8.939384,6.270845-16.808493,13.950084-25.533897,20.530856-6.041772,5.231591-12.44646,10.089072-18.58078,15.228443-2.057063,1.723421-5.425508,6.133705-6.44947.703436-.617641-3.275473-.506643-7.167779-.750467-10.544833-.858058-11.884385-.73356-23.744079-1.437244-35.745127-.791209-13.49375-1.633515-26.798872-2.137905-40.33982-.030606-.821653-.407732-1.639998-.247169-2.5089l1.265038,2.929965c2.885738,8.069724,6.607494,20.210716,13.195109,25.786677Z"/>
      </g>
      <g>
        <g>
          <path class="st5" d="M92.780769,158.16h-12.70641c-.431666-2.413789-1.873993-4.582461-3.356161-6.477416,5.258121-.943383,10.53786.15538,15.832566-.375272l.164739.589848c-.330334,2.064806-.224665,4.212108.065266,6.262839Z"/>
          <path class="st0" d="M77.916667,158.4h-6.832692c-2.000245,0-.944599-3.181765.134091-4.185765.352122-.32774,2.659014-1.743184,3.026963-1.77628.88867-.079933,3.665363,4.890368,3.671638,5.962045Z"/>
          <path class="st0" d="M92.542234,149.041235c-1.291464-.047383-9.256459.582851-9.592142.239726-.037515-.038346-.035084-.878762.007334-1.073436.203347-.933243,1.319813-1.108051,2.094244-1.26489,1.052441-.213141,6.912534-.733579,7.385679-.078911.286081.395837.017983,1.631457.104885,2.177511Z"/>
        </g>
        <g>
          <path class="st5" d="M151.997373,147.842415c-1.482201,2.027154-2.289951,4.41962-2.860581,6.853882l-12.483174,1.062591c.708419-1.751586-.825357-5.041799-.621415-6.369203.139634-.908843,1.209418-.28968,1.7-.328702,4.791797-.381148,9.466618-1.666623,14.26517-1.218568Z"/>
          <path class="st0" d="M151.517495,154.559782c-.433057-.436457,1.925785-5.851157,2.871844-6.14638,1.08052-.337182,4.343258,1.894205,4.692738,3.01294.620921,1.987655-.235724,2.354116-1.955305,2.62848-1.757388.280396-3.815284.238371-5.609277.50496Z"/>
          <path class="st0" d="M135.933357,146.641456c.232794-.44337-.304385-2.071345-.240062-2.158804.05669-.077081,1.595032-.384353,1.866703-.41566,1.254017-.144513,7.254906-.570556,7.830956.639369.026328.055298.061008,1.175488.024842,1.224902-.353499.48299-8.212665.714365-9.48244.710193Z"/>
        </g>
      </g>
    </g>
  </g>
</svg>