<?xml version="1.0" encoding="UTF-8"?>
<svg id="Livello_1" xmlns="http://www.w3.org/2000/svg" version="1.1" viewBox="0 0 224.4 225.36">
  <!-- Generator: Adobe Illustrator 30.0.0, SVG Export Plug-In . SVG Version: 2.1.1 Build 123)  -->
  <defs>
    <style>
      .st0 {
        fill: #d2bef8;
      }

      .st1 {
        fill: #ff626b;
      }

      .st2 {
        fill: #ff86b3;
      }

      .st3 {
        fill: #f8a200;
      }

      .st4 {
        fill: #fefefe;
      }

      .st5 {
        fill: #00c6d8;
      }

      .st6 {
        fill: #ffd888;
      }

      .st7 {
        fill: #fdfdfd;
      }
    </style>
  </defs>
  <path class="st1" d="M111.242665,192.719159c5.420869-1.781948,6.193582,4.627118.476691,3.839656l.480895,9.470736c-.576621,1.46683-2.41077,2.161685-3.719053,1.093417-1.073213-.876324-.489427-3.949358-.587341-5.41222-.098843-1.476743-.692399-2.921165-.487541-4.431911-1.390013-.120611-2.976036.56152-3.613126-1.061213-1.387566-3.534271,2.837374-2.656124,3.26707-3.251868-.329655-2.01054-.212824-4.703167,1.011899-6.41801,1.229294-1.721243,8.050803-3.356015,6.714191,1.203165-.387332,1.321187-3.060255,1.226424-3.429589,1.844948-.361951.606159.019876,2.345438-.114097,3.123301Z"/>
  <path class="st1" d="M97.575298,192.958885c1.558375.11518,3.933993-.634172,4.089356,1.565277.201937,2.858801-2.39797,2.130064-4.315973,2.527755-.129511,2.046305-.071135,4.019889-.023696,6.070094.100642.419332,2.854479.449138,2.853099,2.438116-.002133,3.07408-4.759192,2.088138-6.064624.345758-1.584438-2.114773-1.102131-5.904086-.854157-8.385027-5.623948,1.046586-5.01816-4.537742.228992-4.331809-.251529-1.986652.70236-7.990416,3.829209-6.088861,1.908213,1.160457.116385,4.056554.257795,5.858696Z"/>
  <path class="st1" d="M136.590167,186.534818c1.415358-.286259,2.900982.461741,2.964598,1.980454.045553,1.087495-.529162,2.148624-.681863,3.186154-.366194,2.488104-1.220217,10.359355-.478092,12.355875.464515,1.249673,1.726712,1.529904-.118909,2.886369-3.133713,2.303168-4.709664-.992115-4.746938-3.796666-.049371-3.714869.408601-8.694088.994998-12.439167.242177-1.546685.328028-3.821469,2.066206-4.173019Z"/>
  <path class="st1" d="M77.033251,195.196718c1.498261-1.371351,2.995252.13994,3.295272.064038.500047-.126508,1.143331-1.029067,1.896467-1.227895,1.063406-.280739,3.176549-.097753,4.152051.417711,1.633443.863126,1.137886,4.406815-1.145676,4.28753-.787965-.04116-1.1513-.653513-2.104123-.456853-.422058.087112-1.573913,1.050792-1.730436,1.40259-.089711.201634-.362857,2.405744-.36365,2.756133-.003695,1.633683,1.394176,5.024453-1.129999,5.590148-3.896147.873168-2.835685-5.206044-2.947756-7.507828-.068823-1.413542-1.05909-4.28494.077849-5.325574Z"/>
  <path class="st1" d="M173.264394,186.769944c.53929-.157713,1.924825-.111743,2.480335.057128,2.378042.72291.488792,4.013411.24082,5.546697-.330696,2.044791-.146378,5.215092-.745543,7.173657-.50176,1.640164-2.278071,2.235713-3.357483.986291-1.17505-1.360123-.721196-7.888818-.398946-9.786735.169119-.996039.709969-3.663874,1.780817-3.977038Z"/>
  <path class="st1" d="M148.569851,195.667293c.585458.702791-.298016,4.626643-.405999,5.815022-.161047,1.772363.689167,5.172274-1.862174,5.59662-3.726009.61972-2.408429-8.37037-1.725067-10.3877.58457-1.72569,2.733402-2.53627,3.99324-1.023943Z"/>
  <path class="st1" d="M172.550355,202.136373c4.214111-.859587,5.276712,6.058153.429917,5.70847-3.477455-.250889-3.195279-5.144396-.429917-5.70847Z"/>
  <path class="st1" d="M145.812226,188.21176c.699069-.409215,3.202972.354983,3.754574,1.061373,2.186269,2.799773-2.755508,6.322081-4.730591,2.57555-.463528-.879266.360251-3.276472.976017-3.636923Z"/>
  <g>
    <path class="st1" d="M48.36085,208.972683c-.962943.963009-3.144809.685599-3.478839-.822698-.3456-1.560542-.46958-4.717602-.539336-6.420086-.12415-3.030051-.286455-6.874525-.238066-9.836868.007016-.429498.401651-2.864417.641445-3.034414.662055-.46935,5.653676-.999802,6.650229-.909063,4.663665.424641,6.851109,3.355877,6.127555,7.995814-.553113,3.546948-5.784234,5.388426-8.745164,6.124907-.410687,1.671041.875209,5.609286-.417823,6.902407Z"/>
    <path class="st4" d="M48.667949,197.76v-4.68c0-.114677-.477166-.408763-.006093-.722518,6.800185-1.748909,5.851877,5.10297.006093,5.402518Z"/>
  </g>
  <g>
    <path class="st1" d="M64.66756,194.69743c6.111808-1.03774,9.19604,5.45239,6.895053,10.50172-1.045364,2.293968-4.327772,3.048565-6.58504,2.27385-5.862941-2.012212-6.267644-11.764008-.310013-12.77557Z"/>
    <path class="st7" d="M67.79063,203.222848c-.381409.379542-1.370913.348627-1.873147.190457-2.117403-.666838-1.963704-5.692089.742824-4.827948,1.403164.448003,1.931272,3.840464,1.130324,4.637491Z"/>
  </g>
  <g>
    <path class="st1" d="M121.726535,194.69743c6.111808-1.03774,9.19604,5.45239,6.895053,10.50172-1.045364,2.293968-4.327772,3.048565-6.58504,2.27385-5.862941-2.012212-6.267644-11.764008-.310013-12.77557Z"/>
    <path class="st7" d="M124.849604,203.222848c-.381409.379542-1.370913.348627-1.873147.190457-2.117403-.666838-1.963704-5.692089.742824-4.827948,1.403164.448003,1.931272,3.840464,1.130324,4.637491Z"/>
  </g>
  <g>
    <path class="st1" d="M157.688073,194.69743c6.111808-1.03774,9.19604,5.45239,6.895053,10.50172-1.045364,2.293968-4.327772,3.048565-6.58504,2.27385-5.862941-2.012212-6.267644-11.764008-.310013-12.77557Z"/>
    <path class="st7" d="M160.811143,203.222848c-.381409.379542-1.370913.348627-1.873147.190457-2.117403-.666838-1.963704-5.692089.742824-4.827948,1.403164.448003,1.931272,3.840464,1.130324,4.637491Z"/>
  </g>
  <g>
    <path d="M166.530155,118.952105c-4.728732,9.731057-10.011123,21.222108-16.348035,30.070637-1.717915,2.398806-3.032636,2.435857-5.857562,2.176175-.064217,3.562304.244886,7.375557-.001212,10.918785-.353032,5.082842-1.815387,8.531589-7.084418,9.948008-4.4929,1.20778-6.312649.121613-9.371675-2.94972-2.864923-2.87645-5.270971-6.461015-7.635703-9.751969-2.96223,3.309071-4.853525,2.213172-8.460071,1.024959-10.526607-3.4681-20.504446-9.039905-30.51204-13.615134-.876302-.400624-3.596238-2.197727-4.38069-2.814823-3.291715-2.589457-4.231224-7.089955-5.504697-10.809411-4.863885-14.206044-8.949631-28.616937-13.175315-42.970593-4.239327-14.399996-9.619737-29.632619-11.904036-44.48321-.178785-1.162311-.570612-4.158398-.528143-5.258664.115274-2.986495,6.154126-8.042994,8.57438-9.678086,19.810223-13.383523,39.276829-20.088166,63.255795-21.636741,4.055108-.261881,11.274583-.39409,13.887951,3.132373,2.005822,2.706644,4.668642,8.59646,6.171586,11.821813,7.87898,16.90847,14.238325,35.580056,20.80496,53.092788,3.364192,8.972053,7.706126,18.750995,10.197923,27.95117,1.652124,6.099946.479737,8.463235-2.129,13.831644Z"/>
    <g>
      <path class="st0" d="M140.967715,38.159054c-4.977923-1.235556-10.13163-1.372941-15.239919-1.200562-21.738582.733569-35.906498,4.631386-54.120145,16.365745-6.322951,4.073636-12.855511,8.402186-17.546567,14.354684-1.496791-4.115624-2.031855-8.533382-3.358123-12.71611-.194179-3.948552-2.542185-9.598893-2.515417-13.32665.025319-3.525987,5.359352-7.658188,8.07911-9.429334,13.756514-8.95844,29.639245-16.494484,46.00293-18.987851,1.397912-.213003,3.200938-.097211,4.492662-.282834,7.223039-1.037965,16.398226-3.729461,22.835968.727034,4.162468,7.987448,8.00694,16.133994,11.3695,24.495877Z"/>
      <path class="st2" d="M141.92921,150.958904c-.09983,1.52758.26172,2.916648.247497,4.452072-.01328,1.43352-.368802,3.320603-.485751,4.79152-.26818,3.373021.513732,6.360377-2.798374,8.478633-5.322888,3.404251-8.097263.022411-11.343096-3.687029-.906017-1.035424-5.020227-5.879729-5.245743-6.773387-.070191-.278146-.012602-.472376.188981-.670663,1.051846-.723566,1.67792-1.834481,2.713959-2.569373,3.828561-2.71571,10.222965-4.55177,14.723978-3.853295.476381.073926,1.385918-.360731,1.998551-.168478Z"/>
      <g>
        <path class="st0" d="M167.09985,112.081041c.170061.176124-1.254061,3.205229-1.472758,3.683193-4.486305,9.804884-10.593143,22.436934-16.933244,31.048645-.536573.728824-1.010728,1.552351-1.885526,1.918899-1.731963.077485-3.535112-.403331-5.238264-.411588-9.53031-.046202-14.173333,1.983316-21.570698,7.687513-1.025058.790435-2.831383,3.04057-4.076731,3.069724-.916021.021444-3.355125-.972987-4.393485-1.325854-11.535829-3.920228-22.323274-9.674649-33.13149-15.196042-.095564-.350287.095434-.399586.232881-.600858,1.960398-2.870726,6.19412-5.390927,9.194502-7.115705,22.043253-12.671633,49.322776-22.740498,75.067303-22.765388,1.315499-.001272,2.8634.549414,4.20751.007462Z"/>
        <g>
          <path class="st5" d="M141.867106,40.621304c.211629.167882,1.815438,4.289837,2.094675,4.982945,6.839743,16.9773,13.43271,34.285852,19.429897,51.589323,1.387009,4.001887,3.432951,7.940598,3.7107,12.247186-3.758216-.194011-7.451365.143622-11.179874.447039-23.074613,1.877758-43.101293,8.706552-63.345925,19.627794-4.156555,2.24231-9.304229,4.981002-12.961551,7.904587-.955928.764149-1.735771,1.797535-2.657644,2.592439-.166937.143945-.114875.247497-.474627.145599-1.691753-3.359838-3.041042-6.940646-3.814568-10.641378,2.442911-1.463782,5.215977-2.585176,7.719078-4.043596,3.820709-2.226119,8.838753-5.20192,9.48603-9.941894.577734-4.230715-3.624398-14.037678-5.295874-18.399227-2.254908-5.883959-6.745927-18.594083-11.342786-22.485083-4.38199-3.709125-9.04406-1.4243-13.039773,1.572205-.820966.615667-1.757869,1.724045-2.533152,2.264138-.203758.141946-.238277.333848-.601464.235436l-2.278639-8.406816c1.70323-1.824988,3.007136-3.995818,4.908012-5.638542,9.914518-8.568057,26.223858-18.034681,38.794253-21.644256,9.293519-2.668624,28.309957-4.856436,37.781692-3.640742.728626.093519,5.310829,1.002225,5.601541,1.232843Z"/>
          <path d="M144.03734,70.612238c.70426.409493,1.06675,3.187112.768411,4.026112,1.007107-.28784,4.432437,1.37037,4.690355,2.148714,1.220776,3.684052-4.86157-.040778-5.16774.252247-.220695,1.182279-1.327223,2.641084-2.32029,3.320493-.342562.234365-1.670526.714721-1.720949.795048-.402725.641564,1.396469,3.327639-.207652,3.772085-1.864262.516522-1.913619-3.0515-2.267046-3.28867-.219561-.147338-1.910155-.199955-2.41429-.341146-1.917631-.53706-6.81758-4.917362-5.475095-6.975612,1.227282-1.881625,2.829614,2.005031,3.520845,2.691939,3.246223,3.225921,8.98335,2.183862,8.937524-2.947464-.00682-.763712-.63962-2.420599-.343373-3.023747.259067-.52745,1.568804-.680311,1.999299-.429999Z"/>
          <path d="M103.032936,80.697843c.479252.482579.631821,4.508121.515423,5.321074-.19627,1.370798-1.849151,2.876726-1.901411,3.387143-.119862,1.170667,2.763613,5.021348.100763,5.156028-1.706018.086286-1.845512-3.569304-2.655597-3.818595-.262132-.080667-2.75265.283171-3.562687.224819-.75929-.054696-1.429164-.275047-2.146033-.491767-.324998-.008412.157029,3.376334-1.456198,3.610641-2.518773.365829-.665883-3.888414-.807022-4.89089-.041363-.293793-4.389221-3.105211-2.835479-4.657316,1.33254-1.331135,2.911547,1.842514,3.897157,2.580576,2.601863,1.948373,8.756073,1.836686,8.754114-2.276163-.000453-.951579-.252051-2.37493-.228262-3.35252.029137-1.197362,1.712728-1.409786,2.325232-.793031Z"/>
          <g>
            <path d="M122.706144,81.655448c1.264458-.052579,2.631613.21074,3.527207,1.136191,1.531844,1.582913,3.741686,9.561413,3.92274,11.915167.436803,5.678552-2.531049,10.549776-8.616092,7.423204-3.654842-1.877904-6.225463-6.260405-7.837123-9.914495-.347002-.786753-1.616336-3.869642-1.73207-4.511239-.280134-1.55299,1.51156-2.781721,2.700039-3.510789,1.817056-1.114666,5.93849-2.45085,8.035299-2.53804Z"/>
            <path class="st3" d="M126.769169,92.215113c.213304.220306.450531,1.599315.50598,2.012974.198513,1.480923.431675,4.050117-.485063,5.217332-.917827,1.168601-1.696748,1.102365-3.039197.71032-1.3344-.389694-2.806962-1.470613-3.762101-2.472858-.583881-.612676-2.45203-2.735096-1.794425-3.478665.440075-.497604,2.695492-1.650075,3.408413-1.871384,1.006825-.312545,4.488179-.818196,5.166393-.117719Z"/>
          </g>
        </g>
        <g>
          <path class="st6" d="M71.448944,126.47695l-8.402992-27.94599c.000503-.28942.18721-.429769.35887-.620084.642338-.71214,3.913808-2.700483,4.911061-3.241929,3.191334-1.732696,6.899987-2.840147,10.209069-4.373037.39519.058895,2.811137,6.401261,3.1677,7.324067,1.413976,3.659458,5.721883,14.053464,5.514739,17.400917-.027892.450734-.315719,1.211831-.52473,1.634346-1.56468,3.162986-8.507976,6.838293-11.728283,8.419303-.513653.252178-3.228441,1.651717-3.505434,1.402408Z"/>
          <path class="st6" d="M71.781974,77.181276c2.931616,2.857522,4.400512,6.918486,5.895527,10.656371-3.728243,1.197473-7.173736,3.182247-10.794313,4.677073l-4.788326,3.244096-3.965863-14.390145c1.85933-1.939839,4.682831-4.243132,7.157285-5.332563,2.919242-1.285259,4.323874-.971757,6.495689,1.145168Z"/>
        </g>
      </g>
    </g>
  </g>
  <g>
    <path d="M162.786479,173.282903c3.633269,2.795897,8.401848,2.856648,12.765785,2.097118,1.43635-.249993,3.801448-.82096,5.166899-1.307575,1.205525-.429621,5.059538-3.11632,5.70619-.799973.292717,1.048529-1.479732,1.935363-2.251952,2.337905-6.105803,3.182821-15.148833,3.961092-21.437603.959776-.688318-.3285-2.555895-1.745784-2.979829-1.792232-.53306-.058404-4.771677,1.364825-5.780102,1.562625-2.63413.516679-6.892172,1.060313-9.518527,1.027872-1.487526-.018374-3.842329-.554838-5.348206-.786192-.550313-.765856-.031649-1.604128.831887-1.809794l6.636643.176125c1.628107-.594634,3.242622-.461588,4.989554-.779236,1.907581-.346858,3.889373-.826445,5.702202-1.492166l-1.069644-3.495023c.519314-5.973884,5.157858-11.923916,11.677755-10.95927,1.917553.28371,3.836415,1.889591,4.019152,3.896361.476112,5.228539-4.897803,9.212053-9.110204,11.16368Z"/>
    <path class="st6" d="M166.312893,160.663678c.508394-.040919,1.042784.001541,1.511704.232389,3.60485,1.774653-.437621,6.384829-2.416676,7.928762-.683441.533177-4.696614,2.899456-5.251857,2.667204-2.372823-.992528-.764615-5.438.182063-7.02242,1.262244-2.112571,3.497739-3.606565,5.974765-3.805935Z"/>
  </g>
</svg>