<?xml version="1.0" encoding="UTF-8"?>
<svg id="Livello_1" xmlns="http://www.w3.org/2000/svg" version="1.1" viewBox="0 0 224.4 225.36">
  <!-- Generator: Adobe Illustrator 30.0.0, SVG Export Plug-In . SVG Version: 2.1.1 Build 123)  -->
  <defs>
    <style>
      .st0 {
        fill: #ff626b;
      }

      .st1 {
        fill: #ff86b3;
      }

      .st2 {
        fill: #f8a200;
      }

      .st3 {
        fill: #f7f7f7;
      }

      .st4 {
        fill: #00c6d8;
      }

      .st5 {
        fill: #ffd888;
      }

      .st6 {
        fill: #fdfdfd;
      }
    </style>
  </defs>
  <path class="st0" d="M145.520849,174.239715l4.901174-6.736994c3.831837-1.228723,3.81435,1.625599,4.182233,4.48767.389014,3.026459.877877,7.055139.986949,10.052036.115811,3.182076-.661518,5.376054-3.947273,2.991438l-1.086216-9.832662c-.415633-.108366-.479199.172821-.719634.357215-1.216674.933087-3.169148,4.30725-4.642334,4.196107-.550642-.041543-1.763431-.575543-2.170109-.973138l-3.012681-4.779918-1.261163,11.818723c-.576504,1.231602-3.702882,1.464066-4.000821-.435259-.445337-2.83897.598665-7.782745.941269-10.787562.196064-1.719585.20257-6.941332,1.184236-8.174483.580023-.728615,2.637222-.787975,3.35975-.209288,1.924546,1.541408,3.41317,6.191273,5.284619,8.026115Z"/>
  <path class="st0" d="M95.7133,184.745113c-.240496-.236281-.192665-.914991-.422711-.911354-.460696.007285-1.575757.828963-2.410598.944894-5.495998.763205-6.268745-3.589874-5.823913-7.989469.201505-1.99298.761379-5.84273,3.388293-5.376298,2.61137.463672.78798,4.545489.662185,6.310824-.12944,1.816482-.114195,4.088231,2.275058,2.517479,2.589855-1.702632,2.096453-5.113015,2.571577-7.745375.271061-1.501774,1.544124-2.301157,3.000684-1.673974,2.069827.891252.430795,6.068293.303046,7.861237-.104548,1.467314.28974,4.281604-.053407,5.466518-.347994,1.20165-2.698837,1.373024-3.490213.595517Z"/>
  <path class="st0" d="M111.000939,170.878885c1.558375.11518,3.933993-.634172,4.089356,1.565277.201937,2.858801-2.39797,2.130064-4.315973,2.527755-.129511,2.046305-.071135,4.019889-.023696,6.070094.100642.419332,2.854479.449138,2.853099,2.438116-.002133,3.07408-4.759192,2.088138-6.064624.345758-1.584438-2.114773-1.102131-5.904086-.854157-8.385027-5.623948,1.046586-5.01816-4.537742.228992-4.331809-.251529-1.986652.70236-7.990416,3.829209-6.088861,1.908213,1.160457.116385,4.056554.257795,5.858696Z"/>
  <path class="st0" d="M181.65542,164.689944c.53929-.157713,1.924825-.111743,2.480335.057128,2.378042.72291.488792,4.013411.24082,5.546697-.330696,2.044791-.146378,5.215092-.745543,7.173657-.50176,1.640164-2.278071,2.235713-3.357483.986291-1.17505-1.360123-.721196-7.888818-.398946-9.786735.169119-.996039.709969-3.663874,1.780817-3.977038Z"/>
  <path class="st0" d="M180.941381,180.056373c4.214111-.859587,5.276712,6.058153.429917,5.70847-3.477455-.250889-3.195279-5.144396-.429917-5.70847Z"/>
  <g>
    <path class="st0" d="M172.541668,174.069879c.419145.502761.142291,2.173552-.032257,2.823915-.940808,3.505436-4.3824,3.310163-7.24392,4.032463-.238816.060281-.7614-.089697-.5596.390471.066226.15758,1.141264,1.184725,1.346305,1.291787,2.813789,1.469217,5.221056-3.626239,7.287885-1.29398,1.743744,1.967682-.913705,3.877785-2.483226,4.725056-8.122242,4.384609-15.03581-6.308668-8.67946-12.768743,1.746101-1.774595,5.647363-2.607402,7.834555-1.344628.359103.207328,2.283003,1.847726,2.529718,2.143659Z"/>
    <path class="st3" d="M168.539097,176.157161c-.141546.188585-3.917203.858126-4.073833.721539-.140679-1.808494,5.025722-1.989762,4.073833-.721539Z"/>
  </g>
  <g>
    <path class="st0" d="M58.977903,172.80113c2.132272-.687947,4.2154-1.356004,6.216677.134562,4.982307,3.71086.581767,12.924996-5.116626,12.327581-.447892-.046957-.849617-.35034-1.250923-.388086-.797155-.074979-2.138601.51922-2.968977-.432933-.504166-.578103-.156955-3.76593-.227663-4.812145-.260213-3.850163-1.504511-8.110694-1.667336-11.789168-.052812-1.193104.350666-2.370316,1.64989-2.628332,3.211763-.637832,3.043129,5.665642,3.364959,7.588519Z"/>
    <path class="st6" d="M61.792655,176.200489c1.832323-.369622,1.758813,2.784546.4184,4.037131-1.592907,1.488535-2.273187,1.306225-2.482945-.867454-.169526-1.756764.138701-2.78119,2.064545-3.169677Z"/>
  </g>
  <g>
    <path class="st0" d="M75.216278,172.61743c6.111808-1.03774,9.19604,5.45239,6.895053,10.50172-1.045364,2.293968-4.327772,3.048565-6.58504,2.27385-5.862941-2.012212-6.267644-11.764008-.310013-12.77557Z"/>
    <path class="st6" d="M78.339348,181.142848c-.381409.379542-1.370913.348627-1.873147.190457-2.117403-.666838-1.963704-5.692089.742824-4.827948,1.403164.448003,1.931272,3.840464,1.130324,4.637491Z"/>
  </g>
  <g>
    <path class="st0" d="M39.864006,165.666484c.607794-.620388,2.132796-.718634,2.903462-.279004.561351.320226,2.010291,3.036002,2.42934,3.807374,1.872215,3.446315,4.101619,7.859109,5.212623,11.581801.622989,2.087476,2.387394,6.154451-1.358657,5.680306-.374224-.047366-.958437-.186986-1.218868-.460017-.198585-.208193-1.228319-3.099028-1.397885-3.640628-.218373-.697488-.103516-2.542155-.99956-2.605823-1.492821.51102-4.577966.16261-5.871935.854347-1.351558.722523.163382,5.360539-3.486896,5.171755-1.724968-.089211-1.658712-.727837-1.52213-2.268408.346956-3.91348,1.612018-8.687088,2.976311-12.378237.288594-.780802,2.030108-5.153077,2.334196-5.463466Z"/>
    <polygon class="st6" points="43.87211 175.918592 40.277706 176.158799 41.7184 171.361783 43.358463 174.395144 43.87211 175.918592"/>
  </g>
  <g>
    <path d="M111.719466,57.600587c1.313078.061059,2.653843-.081223,3.966689-.010278,11.875228.641719,24.025768,1.097397,35.723381,3.117055,2.412526.416536,3.125402-.751642,4.546971-2.384015,6.486551-7.448442,12.753213-16.027562,20.994298-21.703291,1.990325-1.370759,5.569864-3.897104,7.88018-2.408895,6.230397,4.013362,7.59717,17.448057,8.670078,24.20082,3.258538,20.508869,4.08536,43.631738,1.888611,64.346665-.746662,7.040887-1.68244,15.386592-4.140526,22.015045-2.441124,6.582713-9.572727,6.904297-15.598269,7.404266-28.001691,2.323441-60.996034-2.686235-88.567825-7.874152-18.870404-3.550661-35.787472-8.858581-53.821545-15.000892-.468196-.159465-3.22065-2.427529-3.688329-2.907811-4.320575-4.437001-2.638273-9.910162-.742698-15.093786,3.179858-8.695611,10.012759-19.223608,15.181695-27.042068,8.225481-12.441746,17.616298-25.7329,26.957817-37.333351,5.722048-7.105733,13.742982-17.018714,20.924594-22.371099,2.251286-1.677861,6.939328-2.251769,9.283072-.440675,6.400268,4.945714,9.568746,22.231071,10.513096,30.033889.144466,1.193668.151227,2.259683.028708,3.452572Z"/>
    <path class="st5" d="M138.092308,120.48c1.845306-.545842,3.979973.846371,5.752056,1.321766,2.126943.570593,4.46157,1.119544,6.620682,1.532262,3.74371.715616,7.565592,1.197558,11.360696,1.467212.49423.419848-2.301516,2.196941-2.512761,2.40104-5.45164,5.267231-7.607521,10.894894-8.811481,18.293877-.05236.321781-.422013.729369-.422013.783844v3.48c-.69734.087841-1.344078-.225296-2.027983-.249844-24.454697-.877788-48.658865-5.247691-72.592476-10.129889l-11.44156-3.06753c.265855-2.50492.376341-5.27269.243817-7.802751-.260079-4.965273-1.53539-8.992364-3.562287-13.473903l-2.438956-4.395972c5.491324,1.164491,11.031246,2.362808,16.651088,2.648791,3.163282.160974,6.420464.031341,9.559737-.020946,1.689782,2.90381,3.48839,5.926387,6.0288,8.18595.295304.262657.803081.190392.84264.226094.366998-.07623.766682.122822,1.079494.336739,7.328481,8.588845,21.13611,11.235271,31.794527,8.691532,6.530594-1.558593,10.486935-4.848981,13.296383-10.627437l.579596.399166Z"/>
    <path class="st1" d="M192.274226,126.722346c-.412448,1.382776-.296789,2.988012-.510056,4.40692-.441564,2.937825-2.514013,13.264852-4.310247,15.125143-2.274473,2.355586-5.818673,3.11076-8.995839,3.474539-7.459563.854106-15.681274.209761-23.224108.108178-.867716-.011686-1.836108.318802-2.758606.16049.094642-.967572.15797-1.955701.311135-2.927738,1.167022-7.406307,3.259353-13.1476,8.673967-18.436723.593225-.579476,3.071087-2.785724,3.645095-3.092625.983295-.525733,4.090144.368181,5.23444.457342,4.663945.363404,9.469406.634759,14.131248.733553,2.640877.055966,5.186832-.332523,7.802972-.00908Z"/>
    <path class="st1" d="M61.372001,135.840001c-2.02703-.918694-4.242552-1.263299-6.35557-1.915274-6.329266-1.952905-14.389227-4.507553-20.343127-7.235116-7.656797-3.507683-5.636214-8.759276-3.142881-15.325466,1.054468-2.776942,2.534008-5.438264,3.72224-8.155467.38064-.26554,2.420612,1.226821,2.943567,1.47424,2.724786,1.289145,6.412926,2.475608,9.31991,3.390122,2.377542.747955,5.906176.919839,7.617256,2.694597,2.084871,2.16246,5.180349,9.649252,5.819414,12.651869.854572,4.015167.575849,8.351153.419191,12.420495Z"/>
    <path class="st2" d="M137.373077,119.28c.164721.56495.381916.762028.719231,1.2-.102819.030414-.291034-.071182-.43222.040223-.163591.129083-1.448604,2.95691-1.970594,3.674393-6.964327,9.572575-23.215187,9.032355-33.244754,5.451079-5.088948-1.817121-7.315092-4.547657-11.102431-7.965694.343508-.105178.483921-.366487.479487-.72l.477705-.239423c-.367568,1.231552.431799,1.276696.840723.24401.886286.788295,1.771174,1.858772,2.672458,2.598506.440062.361182.887718.299748.98381.369668.591751.430585.625576,1.416626,1.499827.868774l-.243514.476615c.948166-.235735,1.14796.503491,1.696525.82635,2.854786,1.68019,6.142877,2.294989,9.197279,2.832769,3.920925.690347,9.436875,1.144283,13.335139.31524,2.292858-.487622,4.428664-1.7098,6.701866-2.05435l-.242765-.476278c.542914-.064101,1.7727-.273864,2.208946-.490501.446973-.221963.203781-.936971,1.149693-.472953-.373947-.65107-.141811-.373838.364592-.713807.683485-.146498.059725.443276.111607.473324.582861.337566.43768-.486377.710628-.84029,1.684366-2.184001,2.270651-2.265564,3.545595-5.103275.190064-.423035-.180197-.777286.541166-.294378Z"/>
    <g>
      <path class="st5" d="M99.014103,78.36c-.508259-4.992892-3.761143-10.190334-8.459452-12.1715-5.434596-2.291641-16.580783-.898217-22.244718.683765-4.177548,1.166823-8.253138,2.91019-12.209847,4.645372,5.326124-7.610516,10.71782-15.195543,16.548122-22.431731,5.261279-6.529955,11.715366-14.443866,18.003293-19.897452,3.191759-2.768246,6.969774-6.168342,10.33553-1.523492,4.5691,6.305502,7.475367,20.101125,8.092473,27.898412.053441.675247-.022315,1.363357.004404,2.037687-4.116446-.315758-8.266944.13065-12.359969.486589-1.002978.087221-2.147429-.490357-2.950225.865068.075577.586278.445962,1.165596,1.049696,1.282342,1.372425.26539,4.639236.034673,6.238231.015517,15.891735-.19038,33.076478.487623,48.885152,2.642261,1.421548.193749,3.289161,1.470547,4.79326.212775,1.824006-1.525288,3.508733-4.203988,5.074-5.960636,4.956644-5.562677,15.095806-17.199016,21.623028-20.114059,2.719781-1.214648,2.389848.079134,4.119107,1.78631,2.165471,3.705541,3.368448,6.817044,4.254329,11.04925,2.82613,13.501543,3.57555,27.816535,3.959036,41.460271.075805,2.697015.335835,5.437166.183155,8.15727-.015201.270824.157701.658426-.23722.594543-.001412-.372061-.091983-.717989-.279054-1.041696-9.067266-15.690013-32.543635-36.293073-51.489169-25.457785-5.733344,3.279001-12.287395,8.697881-16.185327,14.037362-.37562.514533-2.158649,3.765184-2.418784,3.824849l-7.221165-5.007477c-5.300299-2.695126-10.979836-5.618992-17.107887-4.593816-.081496-1.123962.112511-2.374749,0-3.48Z"/>
      <path d="M186.67894,70.722677c-.166936.341147-1.555623,1.754197-1.960689,1.993121-.787674.464601-1.963748.823337-2.874685.737167-5.66969-.536322-11.930237-3.420149-17.545645-4.766607-1.543253-.953022-2.626141-1.720676-2.414858-3.699512.523009-4.898391,11.048772-16.757932,15.758912-18.074297,3.8464-1.074971,5.56928,1.192283,6.959464,4.328575,2.206721,4.978421,2.857422,12.583874,2.394304,17.993855-.034571.403849-.148843,1.144456-.316805,1.487698Z"/>
      <path d="M91.039621,35.817687c7.688346-1.120868,9.17472,10.420665,8.689861,15.898457-.362761,4.098358-1.794383,3.097724-4.907384,3.487368-5.081469.636031-11.993472,1.701383-17.032795,1.316063-2.249967-.172039-2.337365-3.032423-1.92571-4.694767,1.138926-4.599206,10.34368-15.302622,15.176029-16.00712Z"/>
    </g>
    <g>
      <path class="st4" d="M179.706987,86.500276c4.09428,4.103232,8.325513,9.492817,11.322599,14.465828.39128.649243,2.837156,4.763824,2.888433,5.050231.117405.655763-.389381,1.727135.046163,2.574501-.098264,5.350889-1.008022,10.640554-1.452729,15.966489-4.952064-.454693-10.018581-.208052-14.97369-.544084-8.509955-.577104-18.397177-1.713551-26.747395-3.404884-3.878261-.78554-7.629043-2.073568-11.450416-3.054935-.673575-2.037599-1.042507-4.24403-1.780272-6.260227-2.013322-5.502099-6.393887-11.975229-10.367356-16.261544-.301172-.324884-2.041106-1.692101-2.064435-1.828067-.055918-.325893.667778-1.628408.891039-1.980022,3.8238-6.022131,16.497863-17.14533,23.735555-18.009531,10.71573-1.279489,22.667913,5.985725,29.952504,13.286244Z"/>
      <path d="M155.289663,95.817467c1.639732-.281588,5.196347.418888,6.158006,1.882192,2.404091,3.658171.980163,8.599853-3.05031,10.344946-3.609146,1.562669-7.829464-1.997151-8.055174-5.720743-.181017-2.986282,1.960759-5.993492,4.947478-6.506395Z"/>
    </g>
    <g>
      <path class="st4" d="M93.350233,71.427996c.169222.177734.451987.255248.620819.449844,2.385912,2.749992,2.760649,6.773899,2.899324,10.294853-.069041.254175-1.526404.379988-1.925958.513704-4.877266,1.632248-10.54662,6.713213-12.515837,11.470344-2.405402,5.810847-1.408453,11.35845,1.001037,16.961939-4.589676-.273457-9.166162-.32403-13.750179-.992645-5.562718-.811366-11.140176-2.161073-16.5359-3.606415-5.428742-1.454187-11.186-2.866906-15.971002-5.871247-.087639-.300047.771063-1.703574.992587-2.082435,2.317213-3.963008,5.015074-8.29729,7.526226-12.145719.857901-1.314764,6.669292-9.857506,7.306895-10.20529.778735-.424766,2.315473-.79743,3.265059-1.291448,8.537491-4.441596,16.555674-7.271698,26.31909-7.231969,5.139032.020912,7.105703-.109851,10.767837,3.736484Z"/>
      <path d="M74.619993,97.620614c-.686287-.744279-.329749-3.037455-.834297-4.085225-1.042231-2.16435-5.152343-2.408741-7.065503-1.423862-1.478083.760905-2.913704,4.320972-4.370186,3.770619-2.411442-.911199-.463947-3.799903.7046-5.040099,3.996999-4.242077,11.711703-3.808972,14.240168,1.820626.674371,1.50148.992353,3.671589-.330757,4.902316-.63965.594988-1.745817.704384-2.344026.055625Z"/>
    </g>
    <g>
      <path class="st2" d="M91.821795,120.96c-.648748-2.167905-2.429808-4.16441-3.549467-6.166736-4.405229-7.878027-7.261751-17.522864.190159-24.552681,1.217904,3.485748,6.315658,8.657188,10.154971,8.620838,5.794436-.054861,12.095729-6.583604,16.5818-9.743425.666177.431171,1.449753.739612,2.113174,1.164123,9.324887,5.966818,16.810061,16.33055,19.755251,27.022617.16491.598681.12801,1.366886.305394,1.975266-1.070375,2.38692-2.519809,4.622885-4.348299,6.707893-.910176-.086368-1.348504.086656-1.942567.708812-1.30475.455942-2.60898.937174-3.912689,1.443697-8.559064,3.614502-21.123375,2.212536-28.903544-2.419646-.746699-.35535-1.268248-.631023-1.69484-1.354663-1.226619-.478602-2.305137-1.331117-3.235552-2.557544-.960015.729042-1.822836-.058813-1.275205-.954791.017734-.029015.156788.627442-.238587.106242Z"/>
      <path d="M120.051447,97.740499c.81752.826256-.316062,2.147557-.553217,3.045615-.773023,2.92728.189551,7.027434,2.29251,9.252888.730863.773435,4.174694,2.926925,4.430259,3.483439.76441,1.664563-.828325,2.56342-2.358726,1.641106-.426602-.257096-3.820701-2.985002-4.115525-3.318366-.509697-.576327-1.079575-1.933904-1.558552-2.64484-3.89566,2.495731-8.416087,4.05211-13.063204,4.317302-1.650174.094169-2.268999-.19367-3.657353-.413801-1.390594-.220487-5.179538-.379709-5.322726-2.121233-.228098-2.774246,4.785147-.522447,6.125077-.361977,3.102183.371518,7.016607-.198224,9.920093-1.31056,1.752395-.671349,3.256607-1.718864,5.046154-2.276911-1.023974-2.212105-.679476-8.088822,1.548553-9.370809.41762-.240294.894828-.297656,1.266657.078147Z"/>
    </g>
  </g>
</svg>