<?xml version="1.0" encoding="UTF-8"?>
<svg id="Livello_1" xmlns="http://www.w3.org/2000/svg" version="1.1" viewBox="0 0 349.485352 145.232422">
  <!-- Generator: Adobe Illustrator 30.0.0, SVG Export Plug-In . SVG Version: 2.1.1 Build 123)  -->
  <defs>
    <style>
      .st0 {
        fill: #1d1d1b;
      }
    </style>
  </defs>
  <path class="st0" d="M52.884613,56.46991c-.480469.432129-1.020508.743652-1.620117.936035-.600586.191406-1.212402.311523-1.835938.359863-1.104492.095703-2.172363-.228027-3.204102-.97168-1.032715-.743652-1.691895-1.620117-1.97998-2.62793-.768066-2.592285-1.356445-5.208008-1.763672-7.848145-.408691-2.63916-.756348-5.303223-1.043945-7.992188-.576172.04834-1.164551.072266-1.76416.072266-.600586,0-1.187988-.095703-1.76416-.288086-1.056152-.383789-1.884277-1.007812-2.483887-1.87207-.600586-.86377-.948242-1.787598-1.043945-2.771973-.09668-.983398.071777-1.943848.503906-2.879883s1.151855-1.691895,2.160156-2.268066c.527344-.288086,1.103516-.479492,1.728027-.576172.623047-.095703,1.247559-.16748,1.87207-.21582-.097168-2.063477-.180176-4.115234-.252441-6.15625-.071777-2.039551-.060547-4.091309.036133-6.155762.095703-1.535645.251953-3.107422.468262-4.71582.21582-1.60791.65918-3.132324,1.332031-4.572266.527344-1.151855,1.391602-2.039551,2.591797-2.664062.959473-.527344,1.967773-.875,3.023926-1.043945,1.055176-.16748,2.135254-.251953,3.240234-.251953,1.151855.04834,2.303711.120605,3.456055.21582,1.151855.097168,2.327148.168945,3.527832.216309,2.303711.144043,4.619141.3125,6.947754.503906,2.327637.192383,4.644043.312988,6.948242.359863h.719727c.239746,0,.479492.024902.720215.072266.959473.09668,1.859863.528809,2.699707,1.295898.839844.768555,1.379883,1.632324,1.620117,2.591797.191406.768555.227539,1.524414.108398,2.268066-.120117.744629-.373047,1.416504-.755859,2.016113-.384766.600586-.888672,1.116211-1.512695,1.547852-.624023.432129-1.320312.720215-2.087891.864258-.52832.09668-1.356445.132812-2.483887.10791-1.128418-.023438-2.424316-.072266-3.887695-.144043-1.464844-.071777-3.000488-.16748-4.608398-.288086-1.608398-.119141-3.144043-.239746-4.60791-.359863-1.464844-.119141-2.771973-.227051-3.923828-.324219-1.151855-.095215-1.992676-.144043-2.52002-.144043-.240723,2.400879-.336426,4.776855-.288086,7.128418.047363,2.352051.119141,4.728027.21582,7.12793.623535,0,1.836426-.01123,3.63623-.036133,1.799805-.023438,3.708008-.047363,5.724121-.071777,2.016113-.023926,3.911621-.023926,5.687988,0,1.774902.024414,2.975586.060547,3.600098.10791.334961.04834.647949.132812.935547.251953.288086.120117.576172.251953.864258.395996.576172.240723,1.055176.624512,1.439941,1.151855.383789.528809.695312,1.056641.936035,1.583984.384277.816895.503418,1.680664.359863,2.592285-.144043.912109-.467773,1.728027-.97168,2.447754-.504395.720215-1.141113,1.308594-1.908203,1.76416-.768555.456543-1.608887.636719-2.52002.540039-.576172-.047363-1.668457-.072266-3.275879-.072266-1.608887,0-3.336914.012695-5.184082.036133-1.848145.024902-3.576172.04834-5.184082.071777-1.608887.024902-2.699707.036133-3.275879.036133.239746,2.304199.55127,4.584473.936035,6.839844.383789,2.256836.86377,4.48877,1.439941,6.696289.191406.624512.203613,1.259766.036133,1.907715-.168945.648438-.372559,1.236816-.612305,1.76416-.144043.288086-.3125.540039-.503906.755859-.192383.216309-.408203.444824-.647949.684082Z"/>
  <path class="st0" d="M91.259613,57.334167c-.863281.81543-1.835938,1.295898-2.915039,1.439941-1.080078.144043-2.088867.023438-3.024414-.359863-.936523-.384766-1.716797-.99707-2.339844-1.836426-.625-.838867-.936523-1.835938-.936523-2.987793,0-4.991699.227539-9.947266.68457-14.868164.455078-4.919434.683594-9.875.683594-14.867676,0-1.055176.275391-1.991211.828125-2.808105.550781-.81543,1.248047-1.427734,2.087891-1.835938.839844-.407227,1.751953-.599609,2.736328-.576172.983398.024902,1.931641.348633,2.84375.972168,1.536133,1.056152,2.303711,2.472656,2.303711,4.248047,0,4.992676-.228516,9.948242-.683594,14.867676-.457031,4.920898-.683594,9.876465-.683594,14.868164,0,1.439941-.529297,2.688965-1.584961,3.744141ZM94.356293,11.830261c-.960938.960449-2.02832,1.560059-3.204102,1.799805-1.176758.240723-2.303711.192383-3.383789-.144043-1.080078-.335449-2.041016-.947266-2.879883-1.835938-.84082-.887695-1.380859-1.97998-1.620117-3.275879-.241211-1.199219-.132812-2.448242.323242-3.744141s1.139648-2.327637,2.052734-3.096191c1.054688-.911133,2.231445-1.415039,3.527344-1.511719,1.295898-.095703,2.484375.10791,3.564453.611816s1.991211,1.284668,2.736328,2.339844c.743164,1.056641,1.115234,2.280762,1.115234,3.672363,0,.960449-.204102,1.896484-.611328,2.807617-.40918.912598-.948242,1.70459-1.620117,2.376465Z"/>
  <path class="st0" d="M106.235199,57.47821c-.431641.239258-.888672.359863-1.368164.359863-.480469,0-.960938-.024902-1.439453-.072266-.625-.04834-1.212891-.240723-1.764648-.575684-.551758-.335449-1.032227-.743652-1.439453-1.224121-.408203-.479004-.732422-1.031738-.972656-1.655762-.240234-.623535-.359375-1.248047-.359375-1.87207,0-.527832.072266-1.019531.21582-1.476074.143555-.455566.334961-.923828.576172-1.404297,3.214844-6.958984,6.120117-14.063477,8.711914-21.311523,2.591797-7.247559,5.255859-14.447266,7.992188-21.600098.383789-.864258.802734-1.728027,1.259766-2.592285.456055-.86377,1.043945-1.631348,1.763672-2.303711.767578-.623535,1.631836-1.019531,2.592773-1.187988.958984-.167969,1.871094-.119629,2.735352.144043.864258.26416,1.643555.719727,2.339844,1.367676.695312.647949,1.188477,1.476074,1.476562,2.483887,1.487305,5.520508,3.023438,11.028809,4.607422,16.524414,1.583984,5.496582,3.335938,10.932617,5.255859,16.307617.767578,2.160156,1.595703,4.272949,2.484375,6.336426.887695,2.063965,1.955078,4.008301,3.204102,5.831543.383789.528809.612305,1.10498.683594,1.728027.072266.624512.083984,1.249023.036133,1.87207-.09668.624512-.3125,1.212891-.647461,1.76416-.336914.552246-.720703,1.043945-1.152344,1.476074-.240234.240723-.503906.432129-.791992.575684-.288086.144043-.576172.263672-.864258.360352-.52832.288086-1.115234.407227-1.763672.359863-.648438-.04834-1.285156-.144043-1.908203-.288086-.768555-.192383-1.416016-.586914-1.943359-1.187988-.529297-.599609-1.008789-1.235352-1.44043-1.907715-.576172-.815918-1.092773-1.65625-1.547852-2.52002-.457031-.864258-.876953-1.751953-1.259766-2.664062-.480469-.959961-.913086-1.944336-1.295898-2.952148-.384766-1.007812-.768555-1.991211-1.152344-2.952148-1.344727.04834-2.676758.084473-3.996094.108398-1.320312.024414-2.652344.083984-3.996094.179688-1.249023.09668-2.472656.205078-3.671875.324219-1.200195.120117-2.400391.251953-3.599609.395996-.768555,1.824707-1.548828,3.635742-2.34082,5.436035-.791992,1.799805-1.620117,3.612305-2.483398,5.436035-.241211.52832-.625.996582-1.152344,1.403809-.52832.407227-1.056641.731445-1.583984.972168ZM122.219574,21.909851c-.672852,1.824707-1.344727,3.661133-2.016602,5.508301-.672852,1.848145-1.34375,3.684082-2.015625,5.507812,2.351562-.191406,4.751953-.334961,7.200195-.432129-.529297-1.774902-1.056641-3.539062-1.583984-5.291992-.529297-1.751465-1.056641-3.515625-1.583984-5.291992Z"/>
  <path class="st0" d="M201.563324,55.246277c-.529297.912109-1.357422,1.608398-2.484375,2.087891-1.128906.479004-2.220703.599609-3.276367.359863-.288086-.09668-.587891-.180176-.899414-.251953-.313477-.072266-.588867-.180176-.828125-.324219-.480469-.334961-.948242-.719727-1.404297-1.151855-.457031-.432129-.755859-.911133-.899414-1.439941-.144531-.383789-.251953-.803223-.324219-1.260254-.072266-.455566-.036133-.875.107422-1.259766,0-.095703.036133-.239746.108398-.432129.072266-.190918.108398-.334961.108398-.431641.143555-4.464355.262695-8.89209.359375-13.28418.095703-4.39209.144531-8.819824.144531-13.28418-1.776367,3.312012-3.564453,6.612793-5.364258,9.899902-1.799805,3.288574-3.661133,6.541016-5.580078,9.756348-.384766.672852-.924805,1.200195-1.620117,1.583984-.696289.384766-1.404297.647949-2.124023.791992-.192383.04834-.457031.071777-.791992.071777-.335938,0-.696289-.01123-1.080078-.035645-.384766-.023926-.755859-.060059-1.116211-.108398-.359375-.046875-.611328-.119141-.755859-.21582-.52832-.239746-1.055664-.515137-1.583984-.828125-.52832-.311523-.935547-.730957-1.223633-1.259766-1.96875-3.263672-3.84082-6.539551-5.616211-9.828125-1.776367-3.287109-3.576172-6.587891-5.399414-9.899902,0,4.463867.046875,8.89209.143555,13.283691.095703,4.39209.21582,8.820312.360352,13.28418,0,.09668.046875.264648.143555.503906.095703.240723.144531.408691.144531.503906.046875.384766.05957.804688.035156,1.260254-.024414.456543-.132812.876465-.323242,1.259766-.672852,1.249023-1.560547,2.112793-2.664062,2.592285-1.105469.479004-2.220703.623047-3.348633.432129-1.12793-.192383-2.135742-.696777-3.023438-1.512207-.888672-.81543-1.428711-1.919434-1.620117-3.312012-.09668-.671387-.179688-1.775391-.251953-3.312012-.072266-1.535645-.132812-3.275879-.180664-5.220215-.047852-1.943848-.083984-4.006836-.107422-6.191895-.024414-2.183594-.048828-4.259277-.072266-6.228027-.024414-1.967285-.036133-3.719238-.036133-5.255859v-3.312012c0-.720215.036133-1.883301.108398-3.492188.072266-1.607422.179688-3.287109.324219-5.039551.143555-1.751953.334961-3.407715.576172-4.968262.239258-1.559082.503906-2.675293.791992-3.348145.527344-1.151855,1.283203-2.026855,2.267578-2.62793.983398-.599609,2.015625-.92334,3.095703-.97168,1.080078-.047363,2.124023.192383,3.131836.719727,1.008789.528809,1.824219,1.344238,2.448242,2.448242,2.448242,4.368164,4.811523,8.724121,7.091797,13.067871,2.279297,4.344727,4.644531,8.675781,7.092773,12.996094,2.447266-4.320312,4.811523-8.640137,7.091797-12.959961,2.279297-4.320312,4.643555-8.664062,7.091797-13.032227.623047-1.103516,1.44043-1.919434,2.448242-2.447754,1.007812-.527832,2.063477-.767578,3.167969-.720215,1.103516.04834,2.147461.372559,3.131836.972168.983398.600586,1.739258,1.476074,2.267578,2.62793.335938.816895.624023,1.992188.864258,3.527832.239258,1.536621.419922,3.275879.540039,5.220215.119141,1.943848.204102,3.972168.251953,6.083984.047852,2.112793.072266,4.152344.072266,6.119629,0,1.96875-.024414,3.756836-.072266,5.364258-.047852,1.608887-.072266,2.84375-.072266,3.708008v1.691895c0,.791992-.011719,1.691895-.035156,2.700195-.025391,1.007812-.048828,2.087891-.072266,3.239746-.025391,1.152344-.048828,2.244629-.072266,3.276367-.024414,1.032715-.060547,1.943848-.108398,2.73584s-.071289,1.356445-.071289,1.691895c-.09668.576172-.205078,1.151855-.324219,1.728027-.120117.576172-.348633,1.128418-.683594,1.65625Z"/>
  <path class="st0" d="M263.122894,55.246277c-.529297.912109-1.357422,1.608398-2.484375,2.087891-1.128906.479004-2.220703.599609-3.276367.359863-.288086-.09668-.587891-.180176-.899414-.251953-.313477-.072266-.588867-.180176-.828125-.324219-.480469-.334961-.948242-.719727-1.404297-1.151855-.457031-.432129-.755859-.911133-.899414-1.439941-.144531-.383789-.251953-.803223-.324219-1.260254-.072266-.455566-.036133-.875.107422-1.259766,0-.095703.036133-.239746.108398-.432129.072266-.190918.108398-.334961.108398-.431641.143555-4.464355.262695-8.89209.359375-13.28418.095703-4.39209.144531-8.819824.144531-13.28418-1.776367,3.312012-3.564453,6.612793-5.364258,9.899902-1.799805,3.288574-3.661133,6.541016-5.580078,9.756348-.384766.672852-.924805,1.200195-1.620117,1.583984-.696289.384766-1.404297.647949-2.124023.791992-.192383.04834-.457031.071777-.791992.071777-.335938,0-.696289-.01123-1.080078-.035645-.384766-.023926-.755859-.060059-1.116211-.108398-.359375-.046875-.611328-.119141-.755859-.21582-.52832-.239746-1.055664-.515137-1.583984-.828125-.52832-.311523-.935547-.730957-1.223633-1.259766-1.96875-3.263672-3.84082-6.539551-5.616211-9.828125-1.776367-3.287109-3.576172-6.587891-5.399414-9.899902,0,4.463867.046875,8.89209.143555,13.283691.095703,4.39209.21582,8.820312.360352,13.28418,0,.09668.046875.264648.143555.503906.095703.240723.144531.408691.144531.503906.046875.384766.05957.804688.035156,1.260254-.024414.456543-.132812.876465-.323242,1.259766-.672852,1.249023-1.560547,2.112793-2.664062,2.592285-1.105469.479004-2.220703.623047-3.348633.432129-1.12793-.192383-2.135742-.696777-3.023438-1.512207-.888672-.81543-1.428711-1.919434-1.620117-3.312012-.09668-.671387-.179688-1.775391-.251953-3.312012-.072266-1.535645-.132812-3.275879-.180664-5.220215-.047852-1.943848-.083984-4.006836-.107422-6.191895-.024414-2.183594-.048828-4.259277-.072266-6.228027-.024414-1.967285-.036133-3.719238-.036133-5.255859v-3.312012c0-.720215.036133-1.883301.108398-3.492188.072266-1.607422.179688-3.287109.324219-5.039551.143555-1.751953.334961-3.407715.576172-4.968262.239258-1.559082.503906-2.675293.791992-3.348145.527344-1.151855,1.283203-2.026855,2.267578-2.62793.983398-.599609,2.015625-.92334,3.095703-.97168,1.080078-.047363,2.124023.192383,3.131836.719727,1.008789.528809,1.824219,1.344238,2.448242,2.448242,2.448242,4.368164,4.811523,8.724121,7.091797,13.067871,2.279297,4.344727,4.644531,8.675781,7.092773,12.996094,2.447266-4.320312,4.811523-8.640137,7.091797-12.959961,2.279297-4.320312,4.643555-8.664062,7.091797-13.032227.623047-1.103516,1.44043-1.919434,2.448242-2.447754,1.007812-.527832,2.063477-.767578,3.167969-.720215,1.103516.04834,2.147461.372559,3.131836.972168.983398.600586,1.739258,1.476074,2.267578,2.62793.335938.816895.624023,1.992188.864258,3.527832.239258,1.536621.419922,3.275879.540039,5.220215.119141,1.943848.204102,3.972168.251953,6.083984.047852,2.112793.072266,4.152344.072266,6.119629,0,1.96875-.024414,3.756836-.072266,5.364258-.047852,1.608887-.072266,2.84375-.072266,3.708008v1.691895c0,.791992-.011719,1.691895-.035156,2.700195-.025391,1.007812-.048828,2.087891-.072266,3.239746-.025391,1.152344-.048828,2.244629-.072266,3.276367-.024414,1.032715-.060547,1.943848-.108398,2.73584s-.071289,1.356445-.071289,1.691895c-.09668.576172-.205078,1.151855-.324219,1.728027-.120117.576172-.348633,1.128418-.683594,1.65625Z"/>
  <path class="st0" d="M276.369965,57.47821c-.431641.239258-.888672.359863-1.368164.359863-.480469,0-.960938-.024902-1.439453-.072266-.625-.04834-1.212891-.240723-1.764648-.575684-.551758-.335449-1.032227-.743652-1.439453-1.224121-.408203-.479004-.732422-1.031738-.972656-1.655762-.240234-.623535-.359375-1.248047-.359375-1.87207,0-.527832.072266-1.019531.21582-1.476074.143555-.455566.334961-.923828.576172-1.404297,3.214844-6.958984,6.120117-14.063477,8.711914-21.311523,2.591797-7.247559,5.255859-14.447266,7.992188-21.600098.383789-.864258.802734-1.728027,1.259766-2.592285.456055-.86377,1.043945-1.631348,1.763672-2.303711.767578-.623535,1.631836-1.019531,2.592773-1.187988.958984-.167969,1.871094-.119629,2.735352.144043.864258.26416,1.643555.719727,2.339844,1.367676.695312.647949,1.188477,1.476074,1.476562,2.483887,1.487305,5.520508,3.023438,11.028809,4.607422,16.524414,1.583984,5.496582,3.335938,10.932617,5.255859,16.307617.767578,2.160156,1.595703,4.272949,2.484375,6.336426.887695,2.063965,1.955078,4.008301,3.204102,5.831543.383789.528809.612305,1.10498.683594,1.728027.072266.624512.083984,1.249023.036133,1.87207-.09668.624512-.3125,1.212891-.647461,1.76416-.336914.552246-.720703,1.043945-1.152344,1.476074-.240234.240723-.503906.432129-.791992.575684-.288086.144043-.576172.263672-.864258.360352-.52832.288086-1.115234.407227-1.763672.359863-.648438-.04834-1.285156-.144043-1.908203-.288086-.768555-.192383-1.416016-.586914-1.943359-1.187988-.529297-.599609-1.008789-1.235352-1.44043-1.907715-.576172-.815918-1.092773-1.65625-1.547852-2.52002-.457031-.864258-.876953-1.751953-1.259766-2.664062-.480469-.959961-.913086-1.944336-1.295898-2.952148-.384766-1.007812-.768555-1.991211-1.152344-2.952148-1.344727.04834-2.676758.084473-3.996094.108398-1.320312.024414-2.652344.083984-3.996094.179688-1.249023.09668-2.472656.205078-3.671875.324219-1.200195.120117-2.400391.251953-3.599609.395996-.768555,1.824707-1.548828,3.635742-2.34082,5.436035-.791992,1.799805-1.620117,3.612305-2.483398,5.436035-.241211.52832-.625.996582-1.152344,1.403809-.52832.407227-1.056641.731445-1.583984.972168ZM292.35434,21.909851c-.672852,1.824707-1.344727,3.661133-2.016602,5.508301-.672852,1.848145-1.34375,3.684082-2.015625,5.507812,2.351562-.191406,4.751953-.334961,7.200195-.432129-.529297-1.774902-1.056641-3.539062-1.583984-5.291992-.529297-1.751465-1.056641-3.515625-1.583984-5.291992Z"/>
  <path class="st0" d="M9.216644,143.73407c-.86377.81543-1.835938,1.294922-2.916016,1.439453-1.080078.143555-2.087891.023438-3.023926-.360352-.936035-.384766-1.716797-.99707-2.339844-1.835938-.624512-.838867-.936035-1.835938-.936035-2.987305,0-4.992188.227051-9.947266.683594-14.868164.456055-4.919922.684082-9.875.684082-14.868164,0-1.054688.275879-1.991211.828125-2.807617.55127-.81543,1.247559-1.427734,2.087891-1.835938.839355-.407227,1.751953-.599609,2.736328-.576172.98291.024902,1.931641.348633,2.84375.97168,1.535645,1.056641,2.304199,2.472656,2.304199,4.248047,0,4.993164-.228516,9.948242-.684082,14.868164-.457031,4.920898-.684082,9.875977-.684082,14.868164,0,1.439453-.528809,2.688477-1.583984,3.744141ZM12.312836,98.230164c-.960938.960449-2.028809,1.560059-3.204102,1.799805-1.176758.240723-2.304199.192383-3.384277-.144043-1.07959-.335449-2.040527-.947266-2.879883-1.835938-.840332-.887695-1.380371-1.97998-1.620117-3.275879-.240723-1.199219-.132812-2.448242.324219-3.744141.455566-1.295898,1.139648-2.327637,2.051758-3.096191,1.055664-.911133,2.232422-1.415039,3.52832-1.511719,1.295898-.095703,2.483887.10791,3.563965.611816s1.991211,1.284668,2.73584,2.339844c.743652,1.056641,1.116211,2.280762,1.116211,3.672363,0,.960449-.205078,1.896484-.612305,2.807617-.408203.912598-.948242,1.70459-1.619629,2.376465Z"/>
  <path class="st0" d="M24.19223,143.877625c-.432129.239258-.888672.360352-1.368164.360352-.47998,0-.960449-.025391-1.439941-.072266-.624023-.048828-1.212402-.241211-1.763672-.576172-.552734-.334961-1.032715-.743164-1.439941-1.223633-.408691-.479492-.732422-1.032227-.972168-1.65625-.240723-.623047-.359863-1.248047-.359863-1.87207,0-.527344.071777-1.019531.21582-1.475586s.335449-.923828.576172-1.404297c3.214844-6.958984,6.119629-14.063477,8.711914-21.311523,2.591797-7.248047,5.255859-14.447266,7.991699-21.600098.383789-.864258.803711-1.728027,1.260254-2.592285.455566-.86377,1.043945-1.631348,1.76416-2.303711.76709-.623535,1.630859-1.019531,2.591797-1.187988.959473-.167969,1.87207-.119629,2.73584.144043.864258.26416,1.643555.719727,2.340332,1.367676.695312.647949,1.187988,1.476074,1.476074,2.483887,1.486816,5.520508,3.023926,11.028809,4.60791,16.524414,1.583984,5.496094,3.335449,10.932617,5.255859,16.307617.76709,2.160156,1.595215,4.272461,2.483887,6.335938.887695,2.064453,1.955566,4.008789,3.204102,5.832031.383789.52832.611816,1.104492.684082,1.727539.071777.625.083008,1.249023.036133,1.87207-.097168.625-.312988,1.212891-.648438,1.764648-.335938.551758-.719727,1.043945-1.151855,1.475586-.240723.241211-.503906.432617-.791992.576172s-.575684.263672-.86377.360352c-.528809.287109-1.116211.40625-1.76416.359375-.647949-.048828-1.284668-.144531-1.908203-.288086-.768066-.192383-1.416016-.586914-1.943848-1.1875-.528809-.599609-1.007812-1.235352-1.439941-1.908203-.576172-.81543-1.092285-1.65625-1.547852-2.519531-.457031-.864258-.876465-1.751953-1.260254-2.664062-.480469-.959961-.912109-1.944336-1.295898-2.952148-.384766-1.007812-.768555-1.991211-1.151855-2.952148-1.344727.047852-2.676758.083984-3.996094.108398-1.320801.024414-2.652832.083984-3.996094.179688-1.248535.09668-2.472656.205078-3.671875.324219-1.200684.120117-2.400879.251953-3.600098.395508-.768555,1.825195-1.547852,3.635742-2.339844,5.436523-.791992,1.799805-1.620117,3.612305-2.484375,5.435547-.240723.52832-.624023.99707-1.151855,1.404297-.528809.407227-1.056152.731445-1.583984.97168ZM40.176117,108.309265c-.672363,1.825195-1.344238,3.661133-2.015625,5.508789-.672852,1.847656-1.344727,3.683594-2.016113,5.507812,2.351074-.191406,4.751953-.334961,7.199707-.432617-.52832-1.774414-1.056152-3.539062-1.583984-5.291992-.52832-1.750977-1.056152-3.515625-1.583984-5.291992Z"/>
  <path class="st0" d="M86.185394,143.013367c-.913086.288086-1.861328.479492-2.844727.576172-.984375.095703-1.956055.047852-2.916016-.143555-.959961-.144531-1.896484-.432617-2.807617-.864258-.912109-.431641-1.75293-.983398-2.519531-1.65625-1.10498-.958984-2.064941-2.075195-2.880371-3.347656-.816895-1.271484-1.560547-2.603516-2.231934-3.996094-.960938-2.015625-1.800293-4.091797-2.52002-6.228516-.720215-2.134766-1.393066-4.283203-2.016113-6.443359-.960938-3.50293-1.776367-7.043945-2.448242-10.620117-.672363-3.575195-1.344238-7.163574-2.015625-10.763672-.144043-.671875-.276855-1.355957-.395996-2.052246-.120605-.695312-.228516-1.378906-.324219-2.051758-.04834-.623535.047363-1.224121.288086-1.800293.239746-.575684.563477-1.091309.972168-1.547852.407227-.455566.887207-.851562,1.439941-1.187988.55127-.335449,1.139648-.55127,1.763672-.647949,1.487305-.239746,2.880371.060547,4.17627.899902,1.295898.840332,2.016113,2.02832,2.160156,3.563965.046875.480469.154785,1.249023.32373,2.304199.16748,1.056152.383789,2.256836.647949,3.600098.263184,1.344238.540039,2.760742.828125,4.247559.288086,1.48877.563477,2.89209.828125,4.212402.263184,1.320312.515137,2.508789.755859,3.563477.239258,1.056641.407227,1.799805.503906,2.232422.623047,2.496094,1.295898,4.956055,2.015625,7.379883.720703,2.423828,1.631836,4.788086,2.736328,7.091797.095703.192383.239258.467773.431641.828125.191406.360352.419922.745117.68457,1.152344.262695.408203.515625.791992.755859,1.151367.239258.360352.431641.612305.576172.755859.239258.192383.503906.192383.791992,0,.288086-.191406.550781-.407227.791992-.647461.623047-.671875,1.152344-1.379883,1.583984-2.124023s.81543-1.523438,1.152344-2.339844c2.111328-5.231445,3.838867-10.512695,5.183594-15.84082.719727-2.879883,1.368164-5.770508,1.944336-8.675293.575195-2.903809,1.151367-5.819824,1.727539-8.748047.191406-1.151855.68457-2.087891,1.476562-2.808105.791992-.719727,1.678711-1.187988,2.663086-1.403809.983398-.21582,1.980469-.155273,2.988281.180176,1.007812.335938,1.847656.984375,2.520508,1.943848.863281,1.151855,1.174805,2.447754.935547,3.888184-.384766,1.727539-.732422,3.455566-1.043945,5.183594-.3125,1.728027-.660156,3.432617-1.043945,5.112305-.816406,4.080078-1.789062,8.099609-2.916016,12.05957-1.12793,3.959961-2.459961,7.860352-3.996094,11.700195-.576172,1.488281-1.236328,2.928711-1.979492,4.320312-.745117,1.392578-1.645508,2.663086-2.700195,3.81543-.817383.912109-1.740234,1.740234-2.772461,2.484375s-2.124023,1.308594-3.275391,1.691406Z"/>
  <path class="st0" d="M110.521332,143.877625c-.431641.239258-.888672.360352-1.368164.360352-.480469,0-.960938-.025391-1.439453-.072266-.625-.048828-1.212891-.241211-1.764648-.576172s-1.032227-.743164-1.439453-1.223633c-.408203-.479492-.732422-1.032227-.972656-1.65625-.240234-.623047-.359375-1.248047-.359375-1.87207,0-.527344.072266-1.019531.21582-1.475586s.334961-.923828.576172-1.404297c3.214844-6.958984,6.120117-14.063477,8.711914-21.311523s5.255859-14.447266,7.992188-21.600098c.383789-.864258.802734-1.728027,1.259766-2.592285.456055-.86377,1.043945-1.631348,1.763672-2.303711.767578-.623535,1.631836-1.019531,2.592773-1.187988.958984-.167969,1.871094-.119629,2.735352.144043.864258.26416,1.643555.719727,2.339844,1.367676.695312.647949,1.188477,1.476074,1.476562,2.483887,1.487305,5.520508,3.023438,11.028809,4.607422,16.524414,1.583984,5.496094,3.335938,10.932617,5.255859,16.307617.767578,2.160156,1.595703,4.272461,2.484375,6.335938.887695,2.064453,1.955078,4.008789,3.204102,5.832031.383789.52832.612305,1.104492.683594,1.727539.072266.625.083984,1.249023.036133,1.87207-.09668.625-.3125,1.212891-.647461,1.764648-.336914.551758-.720703,1.043945-1.152344,1.475586-.240234.241211-.503906.432617-.791992.576172s-.576172.263672-.864258.360352c-.52832.287109-1.115234.40625-1.763672.359375-.648438-.048828-1.285156-.144531-1.908203-.288086-.768555-.192383-1.416016-.586914-1.943359-1.1875-.529297-.599609-1.008789-1.235352-1.44043-1.908203-.576172-.81543-1.092773-1.65625-1.547852-2.519531-.457031-.864258-.876953-1.751953-1.259766-2.664062-.480469-.959961-.913086-1.944336-1.295898-2.952148-.384766-1.007812-.768555-1.991211-1.152344-2.952148-1.344727.047852-2.676758.083984-3.996094.108398-1.320312.024414-2.652344.083984-3.996094.179688-1.249023.09668-2.472656.205078-3.671875.324219-1.200195.120117-2.400391.251953-3.599609.395508-.768555,1.825195-1.548828,3.635742-2.34082,5.436523-.791992,1.799805-1.620117,3.612305-2.483398,5.435547-.241211.52832-.625.99707-1.152344,1.404297-.52832.407227-1.056641.731445-1.583984.97168ZM126.505707,108.309265c-.672852,1.825195-1.344727,3.661133-2.016602,5.508789-.672852,1.847656-1.34375,3.683594-2.015625,5.507812,2.351562-.191406,4.751953-.334961,7.200195-.432617-.529297-1.774414-1.056641-3.539062-1.583984-5.291992-.529297-1.750977-1.056641-3.515625-1.583984-5.291992Z"/>
  <path class="st0" d="M162.576996,144.309265c-.768555.432617-1.583984.671875-2.448242.719727-.863281.047852-1.667969-.071289-2.412109-.359375s-1.416016-.720703-2.015625-1.295898c-.600586-.576172-1.020508-1.295898-1.259766-2.160156-.384766-1.24707-.672852-2.495117-.864258-3.744141-.192383-1.24707-.3125-2.519531-.360352-3.81543-.192383-2.975586-.227539-5.927734-.107422-8.856445.119141-2.926758.251953-5.878906.395508-8.855469.095703-2.304688.263672-4.595703.503906-6.875977.240234-2.279297.479492-4.572266.720703-6.875977.095703-1.055664.191406-2.099609.288086-3.132324.095703-1.03125.311523-2.027344.647461-2.987793.288086-.76709.719727-1.487305,1.295898-2.160156.767578-.911133,1.667969-1.655762,2.700195-2.231934,1.03125-.576172,2.099609-1.007812,3.204102-1.295898,2.303711-.623535,4.667969-1.008301,7.091797-1.151855,2.423828-.144043,4.834961-.095703,7.236328.143555,3.647461.336426,6.983398,1.65625,10.007812,3.960449,1.967773,1.439941,3.564453,3.324219,4.788086,5.651855,1.223633,2.328613,1.882812,4.71582,1.979492,7.164062.095703,2.064453-.359375,4.103516-1.367188,6.119141-1.008789,2.016602-2.256836,3.744141-3.744141,5.18457-1.680664,1.680664-3.576172,3.108398-5.688477,4.28418-2.112305,1.176758-4.248047,2.220703-6.408203,3.131836-.047852.047852-.024414.120117.072266.21582,4.223633,3.599609,8.807617,6.792969,13.751953,9.576172.81543.480469,1.463867,1.091797,1.944336,1.835938.479492.745117.767578,1.524414.864258,2.339844.095703.816406-.012695,1.632812-.324219,2.448242-.3125.816406-.852539,1.511719-1.620117,2.087891-.864258.719727-1.908203,1.116211-3.131836,1.1875-1.224609.072266-2.316406-.15625-3.276367-.683594-3.791992-2.160156-7.427734-4.536133-10.908203-7.12793s-6.756836-5.423828-9.827148-8.496094c0,1.537109.010742,3.084961.035156,4.644531s.227539,3.108398.612305,4.643555c.095703.384766.204102.755859.324219,1.116211.119141.359375.155273.732422.107422,1.116211-.047852.287109-.083984.587891-.107422.899414-.025391.3125-.108398.612305-.251953.900391-.288086.52832-.636719,1.043945-1.043945,1.547852-.408203.503906-.876953.899414-1.404297,1.1875ZM166.176605,116.805359c2.208008-.288086,4.34375-.875,6.408203-1.763672,2.063477-.887695,4.032227-1.931641,5.904297-3.131836.671875-.432617,1.295898-.887695,1.87207-1.368164.576172-.479492,1.080078-1.055664,1.511719-1.727539.479492-.767578.791992-1.487305.936523-2.160156.095703-.864258-.084961-1.71582-.540039-2.556152-.457031-.839355-1.020508-1.547852-1.692383-2.124023-.672852-.623047-1.452148-1.115723-2.339844-1.476074-.888672-.359863-1.789062-.563477-2.700195-.611816-1.104492-.047363-2.196289-.071777-3.276367-.071777-1.079102,0-2.171875.071777-3.275391.21582-.480469.04834-.960938.10791-1.44043.180176-.480469.071777-.960938.179688-1.439453.32373-.09668.528809-.21582,1.572754-.360352,3.131836-.143555,1.560547-.288086,3.228516-.431641,5.003906-.144531,1.776367-.277344,3.445312-.396484,5.003906-.120117,1.560547-.204102,2.604492-.251953,3.131836h1.511719Z"/>
  <path class="st0" d="M231.047699,143.230164c-1.34375.623047-2.748047,1.03125-4.211914,1.223633-1.464844.19043-2.94043.288086-4.427734.288086-1.537109,0-3.084961-.108398-4.643555-.324219-1.560547-.216797-3.060547-.587891-4.5-1.116211-1.681641-.670898-3.300781-1.535156-4.860352-2.591797-1.560547-1.055664-2.892578-2.303711-3.996094-3.744141-1.583984-1.967773-2.879883-4.151367-3.887695-6.551758-1.008789-2.399414-1.65625-4.847656-1.944336-7.34375-.241211-2.160156-.300781-4.307617-.179688-6.444336.119141-2.134766.443359-4.235352.97168-6.299805.671875-2.495117,1.583984-4.932617,2.736328-7.308105,1.151367-2.375977,2.638672-4.475098,4.463867-6.299805.958984-.959473,1.955078-1.883301,2.988281-2.771973,1.03125-.887695,2.147461-1.620117,3.347656-2.195801.527344-.239746,1.019531-.468262,1.475586-.684082.456055-.216309.947266-.419922,1.476562-.612305,2.399414-.911133,4.907227-1.391602,7.523438-1.439941,2.616211-.047363,5.195312.120605,7.740234.503906,3.456055.576172,6.551758,1.944336,9.288086,4.104004,1.44043,1.10498,2.710938,2.437012,3.816406,3.996094,1.103516,1.560547,1.991211,3.204102,2.664062,4.932129,1.103516,3.023926,1.714844,6.216309,1.835938,9.575684.119141,3.360352-.228516,6.624023-1.043945,9.791992-.576172,2.064453-1.272461,4.104492-2.088867,6.120117s-1.847656,3.887695-3.095703,5.616211c-.768555,1.055664-1.583984,2.076172-2.448242,3.05957-.863281.984375-1.776367,1.884766-2.735352,2.700195-.960938.816406-1.96875,1.524414-3.024414,2.124023-1.056641.600586-2.136719,1.164062-3.240234,1.692383ZM214.488129,131.925476c1.103516.960938,2.422852,1.583984,3.959961,1.87207,1.535156.288086,3.047852.408203,4.536133.360352.719727,0,1.439453-.047852,2.160156-.144531.719727-.095703,1.415039-.311523,2.087891-.647461,1.24707-.576172,2.375977-1.332031,3.383789-2.268555,1.007812-.935547,1.895508-1.955078,2.664062-3.05957,1.487305-2.160156,2.639648-4.5,3.456055-7.020508.81543-2.519531,1.223633-5.075195,1.223633-7.667969,0-1.391602-.107422-2.758789-.324219-4.103516-.21582-1.34375-.636719-2.639648-1.259766-3.887695-.384766-.767578-.839844-1.487305-1.368164-2.160156-.52832-.671387-1.151367-1.247559-1.87207-1.728027-.575195-.383789-1.1875-.695312-1.835938-.936035-.647461-.239746-1.307617-.432129-1.979492-.576172-1.392578-.239258-2.833008-.383301-4.320312-.431641-1.488281-.047363-2.927734.120117-4.319336.503906-.960938.240723-1.920898.611816-2.880859,1.116211-.959961.503906-1.799805,1.140625-2.519531,1.907715-1.632812,1.632324-2.952148,3.552246-3.959961,5.760254s-1.65625,4.463867-1.944336,6.767578c-.240234,2.015625-.251953,4.043945-.036133,6.083984.216797,2.041016.756836,3.972656,1.620117,5.795898.81543,1.776367,1.991211,3.264648,3.52832,4.463867Z"/>
  <path class="st0" d="M295.776215,140.781921c-.384766.960938-.949219,1.740234-1.692383,2.339844-.745117.598633-1.547852,1.007812-2.412109,1.223633s-1.763672.227539-2.700195.036133c-.935547-.192383-1.788086-.624023-2.555664-1.295898-.529297-.431641-1.236328-1.271484-2.124023-2.519531-.888672-1.248047-1.799805-2.592773-2.736328-4.032227-.935547-1.44043-1.824219-2.819336-2.664062-4.140625-.839844-1.319336-1.428711-2.243164-1.763672-2.771484-.241211-.383789-.648438-1.007812-1.223633-1.87207-.576172-.864258-1.236328-1.835938-1.980469-2.916016-.745117-1.080078-1.537109-2.232422-2.375977-3.456055-.839844-1.223633-1.644531-2.375977-2.412109-3.456055-.768555-1.080078-1.452148-2.039062-2.051758-2.879883-.600586-.838867-1.043945-1.427734-1.332031-1.763672.623047,6.720703,1.342773,13.416016,2.160156,20.087891,0,.288086.036133.755859.107422,1.40332.072266.648438.144531,1.321289.216797,2.016602.071289.696289.119141,1.368164.143555,2.015625.023438.648438-.012695,1.116211-.108398,1.404297-.143555.576172-.359375,1.12793-.647461,1.65625s-.672852.984375-1.152344,1.368164c-.863281.71875-1.824219,1.126953-2.879883,1.223633-1.056641.095703-2.02832-.061523-2.916016-.467773-.888672-.40918-1.620117-1.032227-2.196289-1.87207-.575195-.839844-.863281-1.835938-.863281-2.988281,0-.671875-.036133-1.332031-.108398-1.979492-.072266-.648438-.15625-1.307617-.251953-1.980469-.672852-5.759766-1.295898-11.484375-1.87207-17.171875-.576172-5.688477-1.080078-11.435547-1.511719-17.243652-.048828-.767578-.09668-1.535645-.144531-2.304199-.047852-.76709.072266-1.512207.360352-2.231934.334961-.911133.851562-1.65625,1.547852-2.231934.695312-.576172,1.476562-.972168,2.339844-1.187988.864258-.216309,1.739258-.227539,2.62793-.036133.887695.192383,1.71582.600586,2.484375,1.224121.431641.384766,1.175781,1.164062,2.232422,2.339844,1.054688,1.176758,2.147461,2.436523,3.275391,3.779785,1.12793,1.344727,2.196289,2.617188,3.204102,3.816406,1.007812,1.199707,1.703125,2.040527,2.087891,2.52002.288086.335938.744141.948242,1.368164,1.835938.623047.888672,1.332031,1.896484,2.124023,3.023438.791992,1.128906,1.630859,2.316406,2.520508,3.564453.886719,1.248047,1.714844,2.447266,2.483398,3.599609.767578,1.152344,1.463867,2.160156,2.087891,3.024414.623047.863281,1.055664,1.488281,1.295898,1.87207.383789-5.087891.983398-10.104492,1.800781-15.048828.81543-4.942383,1.895508-9.863281,3.239258-14.759277.191406-.623535.503906-1.175781.936523-1.65625.431641-.479004.911133-.86377,1.439453-1.151855,1.055664-.576172,2.196289-.791992,3.419922-.647949,1.224609.144043,2.244141.624512,3.060547,1.439941.623047.576172,1.09082,1.295898,1.404297,2.160156.311523.86377.347656,1.704102.107422,2.52002-1.680664,6.144531-2.94043,12.359863-3.780273,18.647949s-1.236328,12.624023-1.1875,19.007812c0,1.152344.036133,2.329102.108398,3.52832.071289,1.200195-.108398,2.328125-.540039,3.383789Z"/>
  <path class="st0" d="M336.599457,143.085632c-2.208008.81543-4.536133,1.223633-6.983398,1.223633-2.448242,0-4.800781-.360352-7.056641-1.079102-1.439453-.432617-2.820312-1.032227-4.139648-1.800781-1.321289-.766602-2.556641-1.630859-3.708008-2.591797-1.007812-.81543-1.932617-1.727539-2.772461-2.736328-.839844-1.007812-1.620117-2.0625-2.339844-3.167969-.912109-1.295898-1.667969-2.699219-2.267578-4.211914-.600586-1.511719-1.092773-3.035156-1.476562-4.571289-.52832-1.824219-.828125-3.696289-.899414-5.616211-.072266-1.918945-.036133-3.816406.107422-5.688477.335938-3.695312,1.332031-7.1875,2.988281-10.475586,1.65625-3.287109,3.875977-6.155762,6.660156-8.604004.911133-.81543,1.882812-1.522949,2.916016-2.124023,1.03125-.599609,2.098633-1.163086,3.204102-1.691895,3.071289-1.391602,6.275391-1.955078,9.611328-1.691895,3.335938.26416,6.419922,1.332031,9.251953,3.204102,1.583984,1.007812,3.047852,2.220703,4.392578,3.635742,1.342773,1.416504,2.448242,2.964355,3.311523,4.644043.624023,1.249023,1.12793,2.592285,1.512695,4.032227.382812,1.439453.575195,2.856445.575195,4.248047-.047852,1.392578-.276367,2.795898-.683594,4.211914-.408203,1.416016-1.020508,2.675781-1.835938,3.779297-.288086.432617-.600586.853516-.935547,1.260742-.336914.408203-.720703.780273-1.152344,1.115234-1.537109,1.105469-3.264648,1.87207-5.18457,2.304688-1.919922.431641-3.839844.672852-5.759766.719727-2.976562.09668-5.939453.047852-8.891602-.144531-2.952148-.19043-5.916992-.334961-8.892578-.431641.240234,1.249023.599609,2.472656,1.080078,3.671875.479492,1.200195,1.103516,2.329102,1.87207,3.383789.864258,1.201172,1.944336,2.304688,3.240234,3.3125.911133.768555,1.980469,1.368164,3.204102,1.799805,1.223633.432617,2.458984.660156,3.708008.68457,1.24707.024414,2.448242-.155273,3.599609-.540039,1.152344-.383789,2.160156-1.008789,3.024414-1.87207.383789-.383789.707031-.828125.97168-1.332031.263672-.503906.492188-1.019531.68457-1.547852.288086-.864258.755859-1.583984,1.40332-2.160156.648438-.576172,1.391602-.972656,2.232422-1.188477.838867-.21582,1.691406-.239258,2.555664-.072266.864258.168945,1.65625.540039,2.375977,1.116211.671875.576172,1.211914,1.344727,1.620117,2.304688.407227.959961.492188,1.871094.251953,2.735352-.480469,1.680664-1.200195,3.25293-2.160156,4.71582-.959961,1.464844-2.064453,2.749023-3.311523,3.852539-.816406.768555-1.728516,1.428711-2.736328,1.979492-1.007812.552734-2.064453,1.020508-3.167969,1.404297ZM316.583832,110.181335c.623047,0,1.810547.048828,3.563477.144531,1.751953.09668,3.611328.179688,5.580078.251953,1.967773.072266,3.827148.132812,5.580078.179688,1.751953.048828,2.939453.025391,3.564453-.072266,1.054688-.046875,2.134766-.262695,3.239258-.647461.335938-.576172.52832-1.223633.576172-1.944336.047852-.719727-.047852-1.415039-.288086-2.087891-.384766-1.103027-.935547-2.111328-1.655273-3.023438-.720703-.911621-1.560547-1.703613-2.520508-2.375977-.864258-.576172-1.8125-1.031738-2.84375-1.368164-1.033203-.335449-2.077148-.455566-3.131836-.359863-1.392578.09668-2.712891.492676-3.959961,1.187988-1.249023.696289-2.352539,1.524414-3.3125,2.483887-1.056641,1.056152-1.943359,2.244141-2.664062,3.563965-.719727,1.320312-1.295898,2.675781-1.727539,4.067383Z"/>
</svg>