<?xml version="1.0" encoding="UTF-8"?>
<svg id="Livello_1" xmlns="http://www.w3.org/2000/svg" version="1.1" viewBox="0 0 224.4 225.36">
  <!-- Generator: Adobe Illustrator 30.0.0, SVG Export Plug-In . SVG Version: 2.1.1 Build 123)  -->
  <defs>
    <style>
      .st0 {
        fill: #d2bef8;
      }

      .st1 {
        fill: #010101;
      }

      .st2 {
        fill: #ff86b3;
      }

      .st3 {
        fill: #00c6d8;
      }

      .st4 {
        fill: #ffd888;
      }

      .st5 {
        fill: #fdfdfd;
      }
    </style>
  </defs>
  <path d="M118.674716,192.719159c5.420869-1.781948,6.193582,4.627118.476691,3.839656l.476857,9.474044c-.57295,1.466365-2.409441,2.156165-3.715015,1.090109-1.073213-.876324-.489427-3.949358-.587341-5.41222-.098843-1.476743-.692399-2.921165-.487541-4.431911-1.390013-.120611-2.976036.56152-3.613126-1.061213-1.387566-3.534271,2.837374-2.656124,3.26707-3.251868-.329655-2.01054-.212824-4.703166,1.011899-6.41801,1.229294-1.721243,8.050803-3.356015,6.714191,1.203165-.387332,1.321187-3.060255,1.226424-3.429589,1.844948-.361951.606159.019876,2.345438-.114097,3.123301Z"/>
  <path d="M105.007349,192.958885c1.558373.11518,3.933993-.634173,4.089356,1.565277.20194,2.858837-2.397912,2.129966-4.315867,2.52781l-.023868,6.070041c.100308.419102,2.854544.449147,2.853164,2.438114-.002133,3.07408-4.759192,2.088138-6.064624.345758-1.584439-2.114774-1.10213-5.904087-.854157-8.385027-5.623947,1.046582-5.01816-4.53773.228988-4.331815-.284436-1.987715.701747-7.990784,3.829212-6.088854,1.908213,1.160457.116385,4.056555.257795,5.858696Z"/>
  <path d="M144.022218,186.534818c.69934-.141443,1.199285-.10631,1.831256.216433,2.11581,1.08053.658551,3.45393.415238,5.153897-.349758,2.443663-1.166363,10.203017-.441851,12.152152.464515,1.249673,1.726712,1.529904-.118909,2.886369-3.133713,2.303168-4.709664-.992115-4.746938-3.796666-.049371-3.714869.408601-8.694088.994998-12.439167.242177-1.546685.328028-3.821469,2.066206-4.173019Z"/>
  <path d="M84.225559,195.196718c1.498257-1.371351,2.995253.13994,3.295272.064038.500047-.126508,1.143331-1.029067,1.896467-1.227895,1.063406-.280739,3.176549-.097753,4.152051.417711,1.633443.863126,1.137886,4.406815-1.145676,4.28753-.787965-.04116-1.1513-.653513-2.104123-.456853-.422058.087112-1.573913,1.050792-1.730436,1.40259-.089711.201634-.362857,2.405744-.36365,2.756133-.003695,1.633683,1.394176,5.024453-1.129999,5.590148-3.857937.864605-2.829967-4.997732-2.947793-7.267791-.074083-1.427304-1.037343-4.544845.077886-5.565612Z"/>
  <path d="M156.001902,195.667293c.585458.702791-.298016,4.626643-.405999,5.815022-.161047,1.772363.689167,5.172274-1.862174,5.59662-3.726009.61972-2.408429-8.37037-1.725067-10.3877.58457-1.72569,2.733402-2.53627,3.99324-1.023943Z"/>
  <path class="st1" d="M153.244278,188.21176c.699069-.409215,3.202972.354983,3.754574,1.061373,2.186269,2.799773-2.755508,6.322081-4.730591,2.57555-.463528-.879266.360251-3.276472.976017-3.636923Z"/>
  <g>
    <path d="M55.792902,208.972683c-.962943.963009-3.144809.685599-3.478839-.822698-.3456-1.560542-.46958-4.717602-.539336-6.420086-.12415-3.030051-.286455-6.874525-.238066-9.836868.007016-.429498.401651-2.864417.641445-3.034414.662055-.46935,5.653676-.999802,6.650229-.909063,4.663665.424641,6.851109,3.355877,6.127555,7.995814-.553113,3.546948-5.784234,5.388426-8.745164,6.124907-.410687,1.671041.875209,5.609286-.417823,6.902407Z"/>
    <path class="st5" d="M56.1,197.76v-4.68c0-.114677-.477166-.408763-.006093-.722518,6.800185-1.748909,5.851877,5.10297.006093,5.402518Z"/>
  </g>
  <g>
    <path d="M72.099612,194.69743c6.111806-1.03773,9.196042,5.452375,6.895053,10.50172-1.045378,2.294003-4.327817,3.048546-6.58504,2.27385-5.861-2.01154-6.320714-11.755007-.310013-12.77557Z"/>
    <path class="st5" d="M75.222681,203.222848c-.381409.379542-1.370913.348627-1.873147.190457-2.117403-.666838-1.963704-5.692089.742824-4.827948,1.403164.448003,1.931272,3.840464,1.130324,4.637491Z"/>
  </g>
  <g>
    <path d="M129.158586,194.69743c6.111806-1.03773,9.196042,5.452375,6.895053,10.50172-1.045378,2.294003-4.327817,3.048546-6.58504,2.27385-5.861-2.01154-6.320714-11.755007-.310013-12.77557Z"/>
    <path class="st5" d="M132.281655,203.222848c-.381409.379542-1.370913.348627-1.873147.190457-2.117403-.666838-1.963704-5.692089.742824-4.827948,1.403164.448003,1.931272,3.840464,1.130324,4.637491Z"/>
  </g>
  <g>
    <path d="M165.120124,194.69743c6.111806-1.03773,9.196042,5.452375,6.895053,10.50172-1.045378,2.294003-4.327817,3.048546-6.58504,2.27385-5.861-2.01154-6.320714-11.755007-.310013-12.77557Z"/>
    <path class="st5" d="M168.243194,203.222848c-.381409.379542-1.370913.348627-1.873147.190457-2.117403-.666838-1.963704-5.692089.742824-4.827948,1.403164.448003,1.931272,3.840464,1.130324,4.637491Z"/>
  </g>
  <g>
    <path d="M162.066918,174.002574c1.821917,1.515075,4.757152,2.547522,7.101814,2.847748,2.569372.328999,6.935307-.177374,9.499428-.751074,1.601819-.358393,5.013225-2.253803,6.351249-1.677168,1.262878.54425.836087,1.775545-.153776,2.358767-6.181558,3.642137-16.496547,3.842601-22.803234.463425-.636847-.341228-2.68844-1.931472-3.032106-1.986377-.324891-.051906-1.450427.451761-1.995713.539025-3.887803.622178-9.437813,1.49157-13.314869,1.198067-.766376-.058017-4.945019-.766929-5.268522-1.084304-.351059-.344409-.298524-1.083694-.003239-1.432498.569622-.672864,6.068512.273838,7.423932.251057,1.583312-.026611,3.882147-.303621,5.49369-.521783.712956-.096516,5.237499-.912203,5.424733-1.171268.075853-.65811-.45724-1.058402-.61167-1.661224-1.931015-7.53779,9.038068-16.406124,14.517103-10.693268,4.585501,4.78119-4.190367,12.223837-8.62882,13.320875Z"/>
    <path class="st4" d="M165.364778,161.58377c1.517339-.213126,3.958696.324578,3.905949,2.200962-.101094,3.596265-5.767871,7.295331-8.876536,8.18838-1.609779.462453-2.065344-1.853711-1.901929-3.112623.394729-3.04089,3.782218-6.842656,6.872515-7.27672Z"/>
  </g>
  <g>
    <path d="M143.846994,151.201641c.286192,3.385573.47085,7.27321.248828,10.688295-.28045,4.313805-.65564,7.266138-4.794583,9.360289-5.968097,3.019635-8.864187.761473-12.839843-3.486873-2.369798-2.532342-4.454842-5.349643-6.469494-8.159077-1.780611,1.892878-2.79932,2.690258-5.443437,2.084269-10.77041-2.468406-21.222465-8.73289-31.186786-13.179379-2.440839-1.089203-4.578588-1.718417-6.862668-3.450003-3.766513-2.855433-4.844782-8.391021-6.377755-12.575413-5.255933-14.346557-9.538555-28.921891-14.091017-43.493913-4.22234-13.51533-10.246637-29.083764-12.11754-43.0695-.506862-3.788996-.77235-5.005567,1.755609-8.003186,4.94083-5.858768,17.755599-13.108181,24.765179-16.728334,13.592476-7.019941,29.755513-10.553469,44.992258-11.838766,3.471903-.292873,10.841455-.139116,13.07649,2.770281,1.537878,2.00189,3.392733,5.777285,4.603336,8.11174,6.041589,11.650243,10.539892,23.961626,15.490042,36.093391,6.226115,15.258885,13.235779,31.01051,18.375021,46.645327,2.313384,7.037873,1.680573,8.755012-1.260768,15.276306-3.718655,8.24469-7.677986,16.800099-12.314914,24.631915-.902211,1.523844-4.094268,6.968765-5.255677,7.698702-1.329646.835672-2.794875.612722-4.292279.623929Z"/>
    <g>
      <path class="st0" d="M138.56942,38.159912c-1.544573-.314627-3.134349-.752371-4.70353-.928974-6.274955-.706212-15.17324.177313-21.542573.93251-17.19893,2.039237-28.803809,6.862852-43.015517,16.458478-6.118818,4.131375-12.776373,8.769634-17.164657,14.736975-2.379995-8.700682-4.500381-17.465375-6.284377-26.315406,1.240646-5.176598,6.264012-8.30899,10.501243-10.983208,11.541954-7.284402,22.940887-13.471094,36.365578-16.635526,6.726278-1.5855,23.558049-4.951398,29.84594-3.60738.79977.170948,3.805683,1.411151,4.261934,1.973507,3.720285,6.472567,6.716814,13.181024,9.778209,19.971333.295623.655704,2.246369,4.009155,1.957751,4.39769Z"/>
      <path class="st2" d="M141.449679,150.958819c.097453.09778.223375,2.328633.248668,2.751249.143405,2.396192.104895,10.089829-.548157,12.191085-1.051497,3.383292-6.836467,5.188174-9.755648,3.163776-2.129668-1.476885-6.794991-6.916173-8.406648-9.104423-.380168-.516178-1.2475-1.644424-.734916-2.170456,1.003451-.693211,1.622068-1.728893,2.574694-2.468747,3.937437-3.057995,10.056403-4.632708,14.821121-4.239882.359113.029607,1.631824-.29223,1.800886-.122601Z"/>
      <g>
        <path class="st0" d="M165.900946,111.600865c.275932.304084-1.670605,4.624116-1.985175,5.330217-2.497717,5.60651-5.35089,11.801848-8.231332,17.199865-1.960941,3.67485-5.156228,9.600833-7.565528,12.826364-.254104.34019-1.248028,1.495815-1.562082,1.56707-.338698.076847-.668837-.192785-.93618-.179122-5.578347.285099-10.328865-.335109-15.803761,1.650471-3.273749,1.18729-6.556228,3.477454-9.236623,5.633498-1.061267.853657-3.736796,3.906593-4.895298,3.940021-.808597.023332-5.337331-1.713032-6.491284-2.119715-3.965334-1.397488-7.832901-3.088212-11.78487-4.522526l-19.490645-9.411476c-.095806-.35057.09594-.399736.232916-.600816,2.667855-3.916395,10.624316-8.145937,14.895119-10.528998,19.971773-11.144028,41.555846-18.827605,64.587137-20.544023,2.768622-.206333,5.557413.140557,8.267607-.240829Z"/>
        <g>
          <path class="st3" d="M139.708733,40.62209l17.252154,42.129151c2.855286,8.792953,7.227448,17.125487,9.181291,26.206406-12.25066-.188023-24.512148,2.230227-36.30355,5.299846-12.984888,3.380316-24.526358,8.634905-36.220797,15.100464-6.19462,3.424849-12.660956,6.903331-17.615248,12.001961-1.921613-3.429468-3.127593-7.248054-4.066652-11.026789,3.276372-1.214807,6.741538-3.148939,9.654642-5.095294,4.184324-2.795705,7.703562-5.255109,7.323151-10.847485-.360805-5.304166-7.497096-21.108288-9.995847-26.712632-2.273725-5.099642-6.309948-14.49389-13.082809-13.731544-2.089301.235169-5.539833,2.264709-7.212896,3.578695-.475015.373066-2.687925,2.67625-2.878254,2.633872-.41569-1.169766-2.917119-7.994382-2.648026-8.633151,3.759208-4.913216,8.240982-8.420818,13.237297-11.961456,7.414946-5.2546,15.791352-10.627207,24.299615-13.834396,10.456073-3.941417,22.035813-5.688452,33.197088-6.367408,5.29972-.322389,10.759706-.240518,15.87884,1.259759Z"/>
          <path d="M89.615491,87.411886c-.880728-.517244-4.403657,1.588098-4.530996-.892984-.119122-2.320962,3.56685-1.917611,3.824166-2.675154.117103-.344752.011042-.86093.145467-1.294518.13249-.427349.816584-1.866969.807091-1.991047-.086458-1.130157-3.721589-2.748829-1.866552-4.349178,1.914294-1.651471,3.435362,1.930996,4.552474,2.398081.253502.105994,1.911456-.189666,2.694061-.068361,3.611057.559718,5.55708,3.952704,4.621797,7.391729-1.01178,3.720306-5.590707,5.668972-8.765881,3.234926-.468846-.359411-1.382686-1.695386-1.481627-1.753493Z"/>
          <path d="M140.78163,70.750239c.032673.055936.750797.429348,1.032687.764618.343066.40803,1.185245,1.986702,1.300465,2.056225.310463.187331,3.504255-1.370304,3.851062.721554.416052,2.509526-2.688612,1.874526-3.829884,2.63641-.296996.198267-.695512,1.310433-1.0822,1.796644-4.952958,6.227719-13.041028-1.057537-8.953751-6.563327,1.413194-1.903652,4.160771-1.991452,4.410202-2.313535.14115-.182262-.84475-3.737129,1.4433-3.853041,2.323612-.117714,1.461547,4.126873,1.828119,4.754453Z"/>
          <path d="M113.182401,88.058672c.126658.144469,3.269358.911277,3.720861.951163,2.346439.207283,5.234375-.459371,7.046611-2.007395.980433-.837492,1.961816-3.078122,3.453989-2.023371,1.67394,1.183235-1.323631,3.884947-2.32256,4.59601-2.361036,1.680643-5.757919,2.384171-8.618688,2.037941-.97479-.117976-4.13571-1.405515-4.357787-1.353247-.531085.124996-.777723,2.095426-2.428376,2.157442-2.976746.111837.107197-3.514924.48062-4.582327.477516-1.364945.162333-3.874864,2.15089-3.601692,1.878367.258035.623116,3.53881.87444,3.825476Z"/>
        </g>
        <g>
          <path class="st4" d="M77.418949,91.455592c.91939,2.413608,2.092892,4.748744,3.057904,7.141483,1.44819,3.590771,3.181855,7.810331,4.396563,11.438735.777333,2.321939,1.930886,5.408972.763648,7.732607-1.439382,2.865397-8.221257,6.703501-11.155626,8.272679-.537717.287549-3.485377,1.875746-3.754114,1.638272l-9.045185-27.722879c4.183079-4.389418,10.184541-6.459219,15.736811-8.500897Z"/>
          <path class="st4" d="M70.642568,78.560322c.83118.865894,2.157488,2.996729,2.760148,4.078456,1.079999,1.938515,1.824329,4.066452,2.828412,6.043241-5.065395,2.819237-11.052902,4.305978-15.21636,8.513155l-4.324201-14.386563c2.226349-2.829345,8.503983-7.91651,12.199872-5.73267.279186.164966,1.497448,1.219064,1.752129,1.484381Z"/>
        </g>
      </g>
    </g>
  </g>
</svg>